<svg width="29" height="29" viewBox="0 0 29 29" fill="none" xmlns="http://www.w3.org/2000/svg">
<path d="M29 14.5C29 22.5081 22.5081 29 14.5 29C6.49187 29 0 22.5081 0 14.5C0 6.49187 6.49187 0 14.5 0C22.5081 0 29 6.49187 29 14.5Z" fill="black"/>
<path d="M17.9326 17.7639L17.9751 17.8006C18.0223 17.7883 18.0719 17.7883 18.1191 17.8006L20.832 18.576C21.6653 18.8752 22.377 19.27 22.8798 19.8257C23.1531 20.1276 23.364 20.481 23.5004 20.8652C23.6368 21.2495 23.696 21.6571 23.6746 22.0645V25.4959C23.6741 25.578 23.6415 25.6566 23.5839 25.7148C23.5263 25.7731 23.4482 25.8063 23.3664 25.8073H5.63133C5.54922 25.8068 5.47062 25.7738 5.41256 25.7155C5.3545 25.6573 5.32165 25.5784 5.32111 25.4959V22.4593C5.31923 21.6849 5.52514 20.9242 5.91722 20.2572C6.32519 19.6123 6.91233 19.1015 7.60618 18.7877L7.65687 18.7673L10.8503 17.8677C10.8963 17.8567 10.9442 17.8567 10.9902 17.8677H11.0064C11.2985 17.6504 11.5458 17.378 11.7343 17.0659C11.8181 16.9345 11.8946 16.7986 11.9634 16.6588C11.6434 16.3097 11.3563 15.9315 11.1058 15.5292L10.2055 14.1045C9.91926 13.7226 9.74257 13.2693 9.69457 12.7938C9.68279 12.6323 9.71416 12.4706 9.78544 12.3253C9.85673 12.1801 9.96534 12.0565 10.1001 11.9675C10.168 11.921 10.2416 11.8834 10.3191 11.8556C10.3063 11.6186 10.3131 11.3811 10.3393 11.1452C10.3331 11.124 10.3291 11.1022 10.3272 11.0801L10.0697 8.84132C8.33407 8.1595 7.50885 7.00958 7.33854 5.83522C7.26421 5.30194 7.31703 4.75856 7.49263 4.24975C7.80697 3.31943 8.45902 2.54219 9.3188 2.07295C10.1786 1.6037 11.1829 1.47692 12.1317 1.71787C12.9427 1.10729 13.7943 0.757222 14.6641 0.801998C15.4326 0.840668 16.197 1.18056 16.9208 1.90715C17.5315 1.60451 18.2165 1.4863 18.8928 1.56686C19.569 1.64743 20.2075 1.92331 20.7306 2.36102C21.224 2.76572 21.611 3.28563 21.8579 3.87526C22.1111 4.46663 22.1981 5.11633 22.1093 5.75381C21.9167 7.01772 20.9962 8.24702 19.0072 8.91866L18.7294 11.1147C18.7264 11.1431 18.7203 11.1711 18.7111 11.1982L18.8044 11.9146C18.9201 11.9439 19.0256 12.0046 19.1093 12.09C19.193 12.1754 19.2516 12.2823 19.2789 12.399C19.3519 12.6839 19.2789 13.0808 19.0315 13.6201C19.0276 13.6307 19.0229 13.6409 19.0173 13.6507L17.9914 15.342C17.7174 15.8036 17.3982 16.2366 17.0384 16.6344C17.0994 16.764 17.1671 16.8903 17.2412 17.0129C17.4194 17.3006 17.6523 17.5502 17.9265 17.7477L17.9326 17.7639ZM11.0895 11.3997L11.1362 12.4478C11.0381 12.4548 10.9395 12.4514 10.8422 12.4376C10.5157 12.4499 10.2339 12.5435 10.2461 12.9098C10.292 13.2623 10.4321 13.5956 10.6516 13.8745L11.5072 15.1995C11.8251 15.6997 12.2122 16.152 12.6568 16.5428C13.1693 16.9615 13.8107 17.1888 14.4715 17.1859C15.1678 17.1992 15.8457 16.9609 16.3815 16.5143C16.8423 16.0921 17.241 15.6062 17.5656 15.0713L18.5307 13.5245C18.7091 13.1174 18.776 12.8589 18.7334 12.7104C18.6483 12.4539 18.04 12.5781 17.8332 12.5516L18.036 11.4607C15.8928 10.5754 13.5753 10.5815 11.0774 11.4017L11.0895 11.3997ZM18.1495 10.0971L18.3523 8.61948C18.3597 8.5535 18.3858 8.49103 18.4275 8.43946C18.4692 8.38789 18.5247 8.34937 18.5875 8.32843C20.4265 7.7667 21.2618 6.72057 21.4261 5.65612C21.4975 5.14359 21.4274 4.62119 21.2233 4.14595C21.0216 3.6609 20.704 3.23313 20.2987 2.90036C19.8464 2.52451 19.2901 2.29702 18.7049 2.24861C18.1197 2.2002 17.5338 2.33321 17.0262 2.62967C16.9575 2.67148 16.8765 2.68804 16.797 2.67653C16.7175 2.66502 16.6444 2.62616 16.5903 2.56658C15.9455 1.85627 15.2846 1.52859 14.6317 1.49603C13.8937 1.45736 13.1435 1.78911 12.4176 2.36712C12.3747 2.40027 12.3247 2.42287 12.2715 2.43312C12.2183 2.44337 12.1635 2.44098 12.1114 2.42614C11.5343 2.24543 10.9179 2.23289 10.3339 2.38997C9.74992 2.54706 9.22237 2.86732 8.81258 3.31352C8.5122 3.63805 8.28289 4.02214 8.13943 4.44106C7.99846 4.84716 7.95606 5.28115 8.01575 5.707C8.1597 6.70021 8.90179 7.669 10.4975 8.23684C10.5596 8.25924 10.6141 8.29886 10.6546 8.3511C10.6952 8.40334 10.7201 8.46605 10.7266 8.53196L10.9131 10.1032C13.2869 9.4926 15.7757 9.4926 18.1495 10.1032V10.0971ZM11.7181 8.54824C11.6979 8.45864 11.714 8.36466 11.7629 8.28699C11.8118 8.20931 11.8894 8.1543 11.9786 8.13406C12.0679 8.11382 12.1615 8.13 12.2389 8.17905C12.3163 8.2281 12.3711 8.30599 12.3912 8.3956L12.5757 8.9207C12.5897 9.00814 12.57 9.09765 12.5206 9.17101C12.4711 9.24436 12.3957 9.29603 12.3096 9.31549C12.2235 9.33494 12.1333 9.32073 12.0573 9.27574C11.9813 9.23075 11.9252 9.15837 11.9006 9.07334L11.7181 8.54824ZM10.8929 3.27282C10.9808 3.24718 11.0752 3.25765 11.1555 3.30192C11.1952 3.32385 11.2302 3.35341 11.2586 3.38892C11.2869 3.42444 11.308 3.46521 11.3207 3.50891C11.3333 3.55261 11.3373 3.59838 11.3323 3.64361C11.3273 3.68884 11.3135 3.73265 11.2917 3.77253C11.2698 3.8124 11.2404 3.84757 11.205 3.87602C11.1696 3.90448 11.129 3.92566 11.0855 3.93835C10.6541 4.04621 10.2602 4.26995 9.94599 4.58557C9.67363 4.89529 9.51357 5.28835 9.49181 5.7009C9.48401 5.79293 9.44011 5.87808 9.36977 5.93763C9.29943 5.99717 9.2084 6.02623 9.11671 6.0184C9.02503 6.01057 8.9402 5.96651 8.88088 5.89589C8.82156 5.82528 8.79262 5.73391 8.80041 5.64187C8.83504 5.07614 9.05944 4.53884 9.43707 4.11746C9.83574 3.70691 10.3395 3.41466 10.8929 3.27282ZM12.4703 17.1289C12.4176 17.2266 12.3628 17.3325 12.3061 17.4118C12.1298 17.6927 11.9186 17.9499 11.6775 18.1771C12.6216 18.5839 13.6388 18.7917 14.6662 18.7877C15.2853 18.7842 15.9004 18.6874 16.491 18.5007C16.7561 18.387 17.0112 18.2508 17.2533 18.0937C17.0304 17.888 16.836 17.6532 16.6755 17.3956C16.6248 17.3162 16.5761 17.2348 16.5295 17.1473C15.9962 17.5889 15.3434 17.7762 14.4776 17.7762C13.6118 17.7762 12.9975 17.5726 12.4683 17.1289H12.4703ZM14.1572 16.0625C14.1351 16.065 14.1127 16.0628 14.0915 16.056C14.0702 16.0492 14.0507 16.038 14.034 16.0232C14.0174 16.0083 14.0041 15.99 13.995 15.9696C13.9859 15.9492 13.9812 15.9271 13.9812 15.9047C13.9812 15.8824 13.9859 15.8603 13.995 15.8398C14.0041 15.8194 14.0174 15.8012 14.034 15.7863C14.0507 15.7714 14.0702 15.7602 14.0915 15.7534C14.1127 15.7467 14.1351 15.7445 14.1572 15.747L14.8507 15.7165C14.8714 15.7159 14.8921 15.7195 14.9115 15.727C14.9309 15.7345 14.9486 15.7457 14.9637 15.7601C14.9788 15.7744 14.9909 15.7916 14.9993 15.8107C15.0077 15.8298 15.0123 15.8503 15.0129 15.8711C15.0137 15.8919 15.0104 15.9126 15.0031 15.9321C14.9959 15.9515 14.9849 15.9693 14.9708 15.9845C14.9566 15.9996 14.9396 16.0118 14.9207 16.0203C14.9019 16.0288 14.8815 16.0334 14.8608 16.034L14.1572 16.0625ZM14.0092 13.9987C13.9645 13.9816 13.9279 13.9483 13.9065 13.9053C13.8851 13.8624 13.8807 13.8129 13.8939 13.7668C13.9072 13.7207 13.9373 13.6812 13.9782 13.6563C14.019 13.6314 14.0678 13.6229 14.1147 13.6323C14.4938 13.7443 14.5202 13.7361 14.8405 13.6181L14.873 13.6079C14.8963 13.5993 14.9211 13.5954 14.946 13.5964C14.9709 13.5974 14.9953 13.6034 15.0178 13.614C15.0404 13.6245 15.0606 13.6394 15.0774 13.6579C15.0942 13.6763 15.1072 13.6979 15.1156 13.7214C15.124 13.7449 15.1277 13.7699 15.1265 13.7948C15.1253 13.8198 15.1192 13.8442 15.1085 13.8668C15.0978 13.8893 15.0828 13.9095 15.0643 13.9262C15.0458 13.943 15.0242 13.9558 15.0007 13.9641L14.9683 13.9763C14.5344 14.133 14.506 14.1432 14.0092 13.9987ZM16.1078 11.8454C16.188 11.8454 16.2664 11.8693 16.333 11.914C16.3997 11.9587 16.4517 12.0223 16.4824 12.0967C16.5131 12.171 16.5211 12.2529 16.5055 12.3318C16.4898 12.4108 16.4512 12.4833 16.3945 12.5403C16.3378 12.5972 16.2655 12.636 16.1869 12.6517C16.1082 12.6674 16.0267 12.6593 15.9526 12.6285C15.8785 12.5977 15.8151 12.5455 15.7706 12.4786C15.726 12.4116 15.7022 12.3329 15.7022 12.2524C15.7022 12.1445 15.745 12.0409 15.821 11.9646C15.8971 11.8883 16.0002 11.8454 16.1078 11.8454ZM13.0907 11.8454C13.1709 11.8454 13.2493 11.8693 13.316 11.914C13.3827 11.9587 13.4347 12.0223 13.4654 12.0967C13.4961 12.171 13.5041 12.2529 13.4885 12.3318C13.4728 12.4108 13.4342 12.4833 13.3775 12.5403C13.3208 12.5972 13.2485 12.636 13.1698 12.6517C13.0912 12.6674 13.0097 12.6593 12.9356 12.6285C12.8615 12.5977 12.7981 12.5455 12.7536 12.4786C12.709 12.4116 12.6852 12.3329 12.6852 12.2524C12.6852 12.1445 12.7279 12.0409 12.804 11.9646C12.88 11.8883 12.9832 11.8454 13.0907 11.8454ZM15.8239 15.2484C15.6784 15.2976 15.5301 15.3384 15.3799 15.3705C15.2405 15.4113 15.097 15.4359 14.952 15.4437C14.8219 15.4521 14.6924 15.4201 14.581 15.3522C14.5523 15.3326 14.5252 15.3108 14.4999 15.287C14.4739 15.3108 14.4461 15.3326 14.4168 15.3522C14.3053 15.4201 14.1758 15.4521 14.0457 15.4437C13.9008 15.4359 13.7572 15.4113 13.6179 15.3705C13.4683 15.3384 13.3207 15.2976 13.1759 15.2484C13.0337 15.1996 12.8943 15.1432 12.7582 15.0794C12.7428 15.0734 12.7289 15.0641 12.7173 15.0522C12.7058 15.0403 12.697 15.0261 12.6914 15.0104C12.6858 14.9948 12.6837 14.9782 12.685 14.9616C12.6864 14.9451 12.6913 14.929 12.6994 14.9146C12.7089 14.8966 12.7224 14.8811 12.739 14.8695C12.7556 14.8578 12.7747 14.8502 12.7947 14.8474L12.9792 14.8209C13.1414 14.8049 13.3009 14.768 13.4537 14.711C13.4983 14.6927 13.5449 14.6724 13.5895 14.65C13.8531 14.5279 14.139 14.3956 14.4249 14.6235C14.4497 14.6424 14.4728 14.6636 14.4938 14.6866C14.5146 14.6641 14.537 14.643 14.5607 14.6235C14.8466 14.3956 15.1345 14.5279 15.3961 14.65C15.4427 14.6724 15.4873 14.6927 15.534 14.711C15.6867 14.7682 15.8462 14.8051 16.0084 14.8209L16.1929 14.8474C16.2132 14.8504 16.2325 14.858 16.2494 14.8696C16.2662 14.8813 16.2802 14.8966 16.2902 14.9146C16.2977 14.9292 16.3021 14.9452 16.3031 14.9615C16.3042 14.9779 16.3019 14.9943 16.2964 15.0098C16.2909 15.0252 16.2823 15.0394 16.2711 15.0514C16.2599 15.0633 16.2464 15.0729 16.2314 15.0794C16.0985 15.1426 15.9625 15.1989 15.8239 15.2484ZM14.3559 19.4146C13.3871 19.4344 12.4273 19.2252 11.5538 18.804C11.3328 18.7144 11.1139 18.6127 10.8989 18.5028L7.84746 19.3596C7.27292 19.6234 6.78593 20.0472 6.44438 20.5808C6.10983 21.1539 5.93607 21.8073 5.94155 22.4715V25.1825H11.5944V23.0211C11.5661 22.4739 11.6698 21.9279 11.8965 21.4295C12.1487 20.9598 12.5011 20.5519 12.9285 20.2348C12.9475 20.2178 12.9686 20.2034 12.9914 20.192L14.5607 19.4146H14.3559ZM14.4066 23.5339C14.5073 23.5339 14.6057 23.5639 14.6894 23.62C14.7731 23.6762 14.8383 23.756 14.8768 23.8493C14.9153 23.9426 14.9254 24.0454 14.9058 24.1445C14.8861 24.2436 14.8377 24.3346 14.7665 24.406C14.6953 24.4775 14.6046 24.5261 14.5059 24.5458C14.4072 24.5655 14.3049 24.5554 14.2119 24.5168C14.1189 24.4781 14.0394 24.4126 13.9835 24.3286C13.9276 24.2446 13.8977 24.1458 13.8977 24.0448C13.8974 23.9776 13.9104 23.9111 13.9359 23.849C13.9614 23.7869 13.9989 23.7305 14.0462 23.683C14.0935 23.6355 14.1497 23.5979 14.2116 23.5723C14.2734 23.5467 14.3397 23.5337 14.4066 23.5339ZM14.4066 21.4071C14.5073 21.4071 14.6057 21.437 14.6894 21.4932C14.7731 21.5493 14.8383 21.6291 14.8768 21.7224C14.9153 21.8158 14.9254 21.9185 14.9058 22.0176C14.8861 22.1167 14.8377 22.2077 14.7665 22.2792C14.6953 22.3506 14.6046 22.3993 14.5059 22.419C14.4072 22.4387 14.3049 22.4286 14.2119 22.3899C14.1189 22.3512 14.0394 22.2858 13.9835 22.2018C13.9276 22.1177 13.8977 22.019 13.8977 21.9179C13.8977 21.7825 13.9513 21.6525 14.0468 21.5567C14.1422 21.4609 14.2717 21.4071 14.4066 21.4071ZM16.4342 19.1683C16.4172 19.1833 16.3981 19.1956 16.3774 19.2049L13.2976 20.7436C12.9512 21.0024 12.6643 21.3327 12.4561 21.7124C12.273 22.1217 12.1903 22.569 12.2148 23.017V25.1845H23.0562V22.0584C23.0752 21.7287 23.0288 21.3985 22.9199 21.0869C22.811 20.7753 22.6416 20.4884 22.4216 20.2429C21.9209 19.7432 21.3064 19.3737 20.6312 19.1663L18.0948 18.4417C17.5857 18.7683 17.0298 19.0147 16.4464 19.1724L16.4342 19.1683Z" fill="#FFFDFD"/>
</svg>
