<svg width="150" height="12" viewBox="0 0 150 12" fill="none" xmlns="http://www.w3.org/2000/svg">
<path d="M0.0953369 0.379984C0.305337 0.389984 0.580337 0.399984 0.920337 0.409983C1.26034 0.419983 1.59534 0.424983 1.92534 0.424983C2.39534 0.424983 2.84534 0.419983 3.27534 0.409983C3.70534 0.399984 4.01034 0.394984 4.19034 0.394984C5.40034 0.394984 6.30534 0.669984 6.90534 1.21998C7.50534 1.76998 7.80534 2.47998 7.80534 3.34998C7.80534 3.70998 7.74534 4.08998 7.62534 4.48998C7.50534 4.87998 7.29534 5.24498 6.99534 5.58498C6.70534 5.91498 6.30534 6.18498 5.79534 6.39498C5.28534 6.60498 4.64034 6.70998 3.86034 6.70998H2.42034V6.40998H3.71034C4.42034 6.40998 4.96034 6.27498 5.33034 6.00498C5.71034 5.73498 5.96534 5.37998 6.09534 4.93998C6.23534 4.49998 6.30534 4.02498 6.30534 3.51498C6.30534 2.56498 6.11534 1.85498 5.73534 1.38498C5.36534 0.914983 4.72534 0.679983 3.81534 0.679983C3.35534 0.679983 3.05534 0.764984 2.91534 0.934984C2.77534 1.10498 2.70534 1.44998 2.70534 1.96998V9.40998C2.70534 9.76998 2.74034 10.04 2.81034 10.22C2.89034 10.4 3.04034 10.52 3.26034 10.58C3.48034 10.64 3.80034 10.68 4.22034 10.7V11C3.96034 10.98 3.63034 10.97 3.23034 10.97C2.83034 10.96 2.42534 10.955 2.01534 10.955C1.62534 10.955 1.26034 10.96 0.920337 10.97C0.580337 10.97 0.305337 10.98 0.0953369 11V10.7C0.435337 10.68 0.690337 10.64 0.860337 10.58C1.04034 10.52 1.16034 10.4 1.22034 10.22C1.28034 10.04 1.31034 9.76998 1.31034 9.40998V1.96998C1.31034 1.59998 1.28034 1.32998 1.22034 1.15998C1.16034 0.979984 1.04034 0.859984 0.860337 0.799984C0.690337 0.729983 0.435337 0.689983 0.0953369 0.679983V0.379984Z" fill="black"/>
<path d="M12.4695 0.304983L16.1295 9.73998C16.2795 10.12 16.4495 10.375 16.6395 10.505C16.8295 10.625 17.0045 10.69 17.1645 10.7V11C16.9645 10.98 16.7195 10.97 16.4295 10.97C16.1395 10.96 15.8495 10.955 15.5595 10.955C15.1695 10.955 14.8045 10.96 14.4645 10.97C14.1245 10.97 13.8495 10.98 13.6395 11V10.7C14.1495 10.68 14.4745 10.595 14.6145 10.445C14.7545 10.285 14.7245 9.94998 14.5245 9.43998L11.7345 1.98498L11.9745 1.78998L9.36452 8.56998C9.20452 8.96998 9.10952 9.30998 9.07952 9.58998C9.04952 9.85998 9.07452 10.075 9.15452 10.235C9.24452 10.395 9.38952 10.51 9.58952 10.58C9.79952 10.65 10.0595 10.69 10.3695 10.7V11C10.0895 10.98 9.79452 10.97 9.48452 10.97C9.18452 10.96 8.90452 10.955 8.64452 10.955C8.39452 10.955 8.17952 10.96 7.99952 10.97C7.82952 10.97 7.66952 10.98 7.51952 11V10.7C7.71952 10.65 7.92452 10.535 8.13452 10.355C8.34452 10.165 8.53452 9.84498 8.70452 9.39498L12.2295 0.304983C12.2695 0.304983 12.3095 0.304983 12.3495 0.304983C12.3895 0.304983 12.4295 0.304983 12.4695 0.304983ZM14.2995 6.67998V6.97998H9.82952L9.97952 6.67998H14.2995Z" fill="black"/>
<path d="M26.8298 0.379984V0.679983C26.4898 0.689983 26.2298 0.739983 26.0498 0.829983C25.8798 0.919983 25.7648 1.06498 25.7048 1.26498C25.6448 1.46498 25.6148 1.74998 25.6148 2.11998V11.075C25.5548 11.075 25.4948 11.075 25.4348 11.075C25.3848 11.075 25.3298 11.075 25.2698 11.075L18.9698 1.33998V9.25998C18.9698 9.61998 18.9998 9.90498 19.0598 10.115C19.1298 10.315 19.2598 10.46 19.4498 10.55C19.6498 10.63 19.9448 10.68 20.3348 10.7V11C20.1548 10.98 19.9198 10.97 19.6298 10.97C19.3398 10.96 19.0648 10.955 18.8048 10.955C18.5548 10.955 18.2998 10.96 18.0398 10.97C17.7898 10.97 17.5798 10.98 17.4098 11V10.7C17.7498 10.68 18.0048 10.63 18.1748 10.55C18.3548 10.46 18.4748 10.315 18.5348 10.115C18.5948 9.90498 18.6248 9.61998 18.6248 9.25998V1.96998C18.6248 1.59998 18.5948 1.32998 18.5348 1.15998C18.4748 0.979984 18.3548 0.859984 18.1748 0.799984C18.0048 0.729983 17.7498 0.689983 17.4098 0.679983V0.379984C17.5798 0.389984 17.7898 0.399984 18.0398 0.409983C18.2998 0.419983 18.5548 0.424983 18.8048 0.424983C19.0248 0.424983 19.2348 0.419983 19.4348 0.409983C19.6348 0.399984 19.8148 0.389984 19.9748 0.379984L25.2698 8.53998V2.11998C25.2698 1.74998 25.2348 1.46498 25.1648 1.26498C25.1048 1.06498 24.9748 0.919983 24.7748 0.829983C24.5848 0.739983 24.2948 0.689983 23.9048 0.679983V0.379984C24.0848 0.389984 24.3198 0.399984 24.6098 0.409983C24.9098 0.419983 25.1848 0.424983 25.4348 0.424983C25.6948 0.424983 25.9498 0.419983 26.1998 0.409983C26.4598 0.399984 26.6698 0.389984 26.8298 0.379984Z" fill="black"/>
<path d="M36.2506 0.379984C36.2106 0.759984 36.1806 1.12998 36.1606 1.48998C36.1506 1.83998 36.1456 2.10998 36.1456 2.29998C36.1456 2.53998 36.1506 2.76498 36.1606 2.97498C36.1706 3.18498 36.1806 3.36998 36.1906 3.52998H35.8456C35.7756 2.82998 35.6806 2.27998 35.5606 1.87998C35.4406 1.46998 35.2306 1.17498 34.9306 0.994983C34.6306 0.814983 34.1656 0.724983 33.5356 0.724983H32.7256V9.25998C32.7256 9.65998 32.7606 9.95998 32.8306 10.16C32.9106 10.36 33.0606 10.495 33.2806 10.565C33.5006 10.635 33.8206 10.68 34.2406 10.7V11C33.9806 10.98 33.6506 10.97 33.2506 10.97C32.8506 10.96 32.4456 10.955 32.0356 10.955C31.5856 10.955 31.1606 10.96 30.7606 10.97C30.3706 10.97 30.0556 10.98 29.8156 11V10.7C30.2356 10.68 30.5556 10.635 30.7756 10.565C30.9956 10.495 31.1406 10.36 31.2106 10.16C31.2906 9.95998 31.3306 9.65998 31.3306 9.25998V0.724983H30.5206C29.9006 0.724983 29.4356 0.814983 29.1256 0.994983C28.8256 1.17498 28.6156 1.46998 28.4956 1.87998C28.3756 2.27998 28.2806 2.82998 28.2106 3.52998H27.8656C27.8856 3.36998 27.8956 3.18498 27.8956 2.97498C27.9056 2.76498 27.9106 2.53998 27.9106 2.29998C27.9106 2.10998 27.9006 1.83998 27.8806 1.48998C27.8706 1.12998 27.8456 0.759984 27.8056 0.379984C28.2256 0.389984 28.6806 0.399984 29.1706 0.409983C29.6706 0.419983 30.1706 0.424983 30.6706 0.424983C31.1706 0.424983 31.6256 0.424983 32.0356 0.424983C32.4456 0.424983 32.8956 0.424983 33.3856 0.424983C33.8856 0.424983 34.3856 0.419983 34.8856 0.409983C35.3856 0.399984 35.8406 0.389984 36.2506 0.379984Z" fill="black"/>
<path d="M37.317 0.379984C37.527 0.389984 37.802 0.399984 38.142 0.409983C38.482 0.419983 38.817 0.424983 39.147 0.424983C39.617 0.424983 40.067 0.419983 40.497 0.409983C40.927 0.399984 41.232 0.394984 41.412 0.394984C42.222 0.394984 42.892 0.509984 43.422 0.739984C43.962 0.969984 44.362 1.28498 44.622 1.68498C44.892 2.07498 45.027 2.51498 45.027 3.00498C45.027 3.30498 44.967 3.62498 44.847 3.96498C44.727 4.30498 44.517 4.62498 44.217 4.92498C43.927 5.22498 43.527 5.47498 43.017 5.67498C42.507 5.86498 41.862 5.95998 41.082 5.95998H39.642V5.65998H40.932C41.642 5.65998 42.182 5.54998 42.552 5.32998C42.932 5.09998 43.187 4.79998 43.317 4.42998C43.457 4.04998 43.527 3.62998 43.527 3.16998C43.527 2.37998 43.337 1.76998 42.957 1.33998C42.587 0.899983 41.947 0.679983 41.037 0.679983C40.577 0.679983 40.277 0.764984 40.137 0.934984C39.997 1.10498 39.927 1.44998 39.927 1.96998V9.40998C39.927 9.76998 39.957 10.04 40.017 10.22C40.077 10.4 40.192 10.52 40.362 10.58C40.542 10.64 40.802 10.68 41.142 10.7V11C40.912 10.98 40.622 10.97 40.272 10.97C39.932 10.96 39.587 10.955 39.237 10.955C38.847 10.955 38.482 10.96 38.142 10.97C37.802 10.97 37.527 10.98 37.317 11V10.7C37.657 10.68 37.912 10.64 38.082 10.58C38.262 10.52 38.382 10.4 38.442 10.22C38.502 10.04 38.532 9.76998 38.532 9.40998V1.96998C38.532 1.59998 38.502 1.32998 38.442 1.15998C38.382 0.979984 38.262 0.859984 38.082 0.799984C37.912 0.729983 37.657 0.689983 37.317 0.679983V0.379984ZM39.702 5.70498C40.242 5.72498 40.667 5.74998 40.977 5.77998C41.287 5.79998 41.537 5.81998 41.727 5.83998C41.927 5.85998 42.117 5.88498 42.297 5.91498C42.967 6.02498 43.447 6.22998 43.737 6.52998C44.037 6.81998 44.257 7.27498 44.397 7.89498L44.772 9.42498C44.872 9.86498 44.972 10.185 45.072 10.385C45.182 10.575 45.347 10.665 45.567 10.655C45.737 10.645 45.877 10.59 45.987 10.49C46.107 10.39 46.232 10.255 46.362 10.085L46.587 10.25C46.377 10.56 46.157 10.8 45.927 10.97C45.707 11.13 45.392 11.21 44.982 11.21C44.612 11.21 44.287 11.1 44.007 10.88C43.727 10.66 43.517 10.23 43.377 9.58998L43.047 8.08998C42.957 7.65998 42.852 7.28998 42.732 6.97998C42.622 6.65998 42.462 6.40998 42.252 6.22998C42.052 6.04998 41.752 5.95998 41.352 5.95998H39.732L39.702 5.70498Z" fill="black"/>
<path d="M54.5451 0.379984V0.679983C54.3551 0.719984 54.1651 0.844983 53.9751 1.05498C53.7851 1.25498 53.5751 1.57498 53.3451 2.01498L50.3151 8.01498H50.0601L46.5501 1.53498C46.3501 1.16498 46.1801 0.934983 46.0401 0.844983C45.9101 0.744983 45.7901 0.694983 45.6801 0.694983V0.379984C45.8801 0.389984 46.0851 0.399984 46.2951 0.409983C46.5151 0.419983 46.7501 0.424983 47.0001 0.424983C47.3301 0.424983 47.6801 0.424983 48.0501 0.424983C48.4301 0.414983 48.7801 0.399984 49.1001 0.379984V0.694983C48.8501 0.694983 48.6301 0.724983 48.4401 0.784983C48.2501 0.844983 48.1251 0.954984 48.0651 1.11498C48.0051 1.27498 48.0501 1.49998 48.2001 1.78998L50.7351 6.64998L50.6151 6.73998L52.6101 2.76498C52.8901 2.21498 53.0251 1.78998 53.0151 1.48998C53.0151 1.18998 52.9001 0.984983 52.6701 0.874984C52.4401 0.754983 52.1151 0.689983 51.6951 0.679983V0.379984C51.9851 0.389984 52.2801 0.399984 52.5801 0.409983C52.8801 0.419983 53.1601 0.424983 53.4201 0.424983C53.6801 0.424983 53.8951 0.419983 54.0651 0.409983C54.2351 0.399984 54.3951 0.389984 54.5451 0.379984ZM50.9901 6.43998V9.40998C50.9901 9.76998 51.0201 10.04 51.0801 10.22C51.1401 10.4 51.2551 10.52 51.4251 10.58C51.6051 10.64 51.8651 10.68 52.2051 10.7V11C51.9751 10.98 51.6851 10.97 51.3351 10.97C50.9951 10.96 50.6501 10.955 50.3001 10.955C49.9101 10.955 49.5451 10.96 49.2051 10.97C48.8651 10.97 48.5901 10.98 48.3801 11V10.7C48.7201 10.68 48.9751 10.64 49.1451 10.58C49.3251 10.52 49.4451 10.4 49.5051 10.22C49.5651 10.04 49.5951 9.76998 49.5951 9.40998V6.33498L50.4051 7.26498L50.9901 6.43998Z" fill="black"/>
<path d="M69.6424 0.304983L73.3024 9.73998C73.4524 10.12 73.6224 10.375 73.8124 10.505C74.0024 10.625 74.1774 10.69 74.3374 10.7V11C74.1374 10.98 73.8924 10.97 73.6024 10.97C73.3124 10.96 73.0224 10.955 72.7324 10.955C72.3424 10.955 71.9774 10.96 71.6374 10.97C71.2974 10.97 71.0224 10.98 70.8124 11V10.7C71.3224 10.68 71.6474 10.595 71.7874 10.445C71.9274 10.285 71.8974 9.94998 71.6974 9.43998L68.9074 1.98498L69.1474 1.78998L66.5374 8.56998C66.3774 8.96998 66.2824 9.30998 66.2524 9.58998C66.2224 9.85998 66.2474 10.075 66.3274 10.235C66.4174 10.395 66.5624 10.51 66.7624 10.58C66.9724 10.65 67.2324 10.69 67.5424 10.7V11C67.2624 10.98 66.9674 10.97 66.6574 10.97C66.3574 10.96 66.0774 10.955 65.8174 10.955C65.5674 10.955 65.3524 10.96 65.1724 10.97C65.0024 10.97 64.8424 10.98 64.6924 11V10.7C64.8924 10.65 65.0974 10.535 65.3074 10.355C65.5174 10.165 65.7074 9.84498 65.8774 9.39498L69.4024 0.304983C69.4424 0.304983 69.4824 0.304983 69.5224 0.304983C69.5624 0.304983 69.6024 0.304983 69.6424 0.304983ZM71.4724 6.67998V6.97998H67.0024L67.1524 6.67998H71.4724Z" fill="black"/>
<path d="M78.4076 0.379984V0.679983C78.0676 0.689983 77.8076 0.729983 77.6276 0.799984C77.4576 0.859984 77.3426 0.979984 77.2826 1.15998C77.2226 1.32998 77.1926 1.59998 77.1926 1.96998V9.40998C77.1926 9.76998 77.2226 10.04 77.2826 10.22C77.3426 10.4 77.4576 10.52 77.6276 10.58C77.8076 10.64 78.0676 10.68 78.4076 10.7V11C78.1776 10.98 77.8876 10.97 77.5376 10.97C77.1976 10.96 76.8526 10.955 76.5026 10.955C76.1126 10.955 75.7476 10.96 75.4076 10.97C75.0676 10.97 74.7926 10.98 74.5826 11V10.7C74.9226 10.68 75.1776 10.64 75.3476 10.58C75.5276 10.52 75.6476 10.4 75.7076 10.22C75.7676 10.04 75.7976 9.76998 75.7976 9.40998V1.96998C75.7976 1.59998 75.7676 1.32998 75.7076 1.15998C75.6476 0.979984 75.5276 0.859984 75.3476 0.799984C75.1776 0.729983 74.9226 0.689983 74.5826 0.679983V0.379984C74.7926 0.389984 75.0676 0.399984 75.4076 0.409983C75.7476 0.419983 76.1126 0.424983 76.5026 0.424983C76.8526 0.424983 77.1976 0.419983 77.5376 0.409983C77.8876 0.399984 78.1776 0.389984 78.4076 0.379984Z" fill="black"/>
<path d="M90.8717 0.379984C91.0817 0.389984 91.3567 0.399984 91.6967 0.409983C92.0367 0.419983 92.3717 0.424983 92.7017 0.424983C93.1717 0.424983 93.6217 0.419983 94.0517 0.409983C94.4817 0.399984 94.7867 0.394984 94.9667 0.394984C95.7767 0.394984 96.4467 0.509984 96.9767 0.739984C97.5167 0.969984 97.9167 1.28498 98.1767 1.68498C98.4467 2.07498 98.5817 2.51498 98.5817 3.00498C98.5817 3.30498 98.5217 3.62498 98.4017 3.96498C98.2817 4.30498 98.0717 4.62498 97.7717 4.92498C97.4817 5.22498 97.0817 5.47498 96.5717 5.67498C96.0617 5.86498 95.4167 5.95998 94.6367 5.95998H93.1967V5.65998H94.4867C95.1967 5.65998 95.7367 5.54998 96.1067 5.32998C96.4867 5.09998 96.7417 4.79998 96.8717 4.42998C97.0117 4.04998 97.0817 3.62998 97.0817 3.16998C97.0817 2.37998 96.8917 1.76998 96.5117 1.33998C96.1417 0.899983 95.5017 0.679983 94.5917 0.679983C94.1317 0.679983 93.8317 0.764984 93.6917 0.934984C93.5517 1.10498 93.4817 1.44998 93.4817 1.96998V9.40998C93.4817 9.76998 93.5117 10.04 93.5717 10.22C93.6317 10.4 93.7467 10.52 93.9167 10.58C94.0967 10.64 94.3567 10.68 94.6967 10.7V11C94.4667 10.98 94.1767 10.97 93.8267 10.97C93.4867 10.96 93.1417 10.955 92.7917 10.955C92.4017 10.955 92.0367 10.96 91.6967 10.97C91.3567 10.97 91.0817 10.98 90.8717 11V10.7C91.2117 10.68 91.4667 10.64 91.6367 10.58C91.8167 10.52 91.9367 10.4 91.9967 10.22C92.0567 10.04 92.0867 9.76998 92.0867 9.40998V1.96998C92.0867 1.59998 92.0567 1.32998 91.9967 1.15998C91.9367 0.979984 91.8167 0.859984 91.6367 0.799984C91.4667 0.729983 91.2117 0.689983 90.8717 0.679983V0.379984ZM93.2567 5.70498C93.7967 5.72498 94.2217 5.74998 94.5317 5.77998C94.8417 5.79998 95.0917 5.81998 95.2817 5.83998C95.4817 5.85998 95.6717 5.88498 95.8517 5.91498C96.5217 6.02498 97.0017 6.22998 97.2917 6.52998C97.5917 6.81998 97.8117 7.27498 97.9517 7.89498L98.3267 9.42498C98.4267 9.86498 98.5267 10.185 98.6267 10.385C98.7367 10.575 98.9017 10.665 99.1217 10.655C99.2917 10.645 99.4317 10.59 99.5417 10.49C99.6617 10.39 99.7867 10.255 99.9167 10.085L100.142 10.25C99.9317 10.56 99.7117 10.8 99.4817 10.97C99.2617 11.13 98.9467 11.21 98.5367 11.21C98.1667 11.21 97.8417 11.1 97.5617 10.88C97.2817 10.66 97.0717 10.23 96.9317 9.58998L96.6017 8.08998C96.5117 7.65998 96.4067 7.28998 96.2867 6.97998C96.1767 6.65998 96.0167 6.40998 95.8067 6.22998C95.6067 6.04998 95.3067 5.95998 94.9067 5.95998H93.2867L93.2567 5.70498Z" fill="black"/>
<path d="M108.083 0.379984C108.043 0.729983 108.013 1.06998 107.993 1.39998C107.983 1.72998 107.978 1.97998 107.978 2.14998C107.978 2.32998 107.983 2.50498 107.993 2.67498C108.003 2.83498 108.013 2.96998 108.023 3.07998H107.678C107.618 2.48998 107.533 2.02498 107.423 1.68498C107.313 1.33498 107.123 1.08998 106.853 0.949984C106.593 0.799983 106.198 0.724983 105.668 0.724983H104.423C104.083 0.724983 103.823 0.754983 103.643 0.814984C103.473 0.864983 103.358 0.979984 103.298 1.15998C103.238 1.32998 103.208 1.59998 103.208 1.96998V9.40998C103.208 9.76998 103.238 10.04 103.298 10.22C103.358 10.4 103.473 10.52 103.643 10.58C103.823 10.63 104.083 10.655 104.423 10.655H105.518C106.148 10.655 106.623 10.57 106.943 10.4C107.273 10.23 107.508 9.95498 107.648 9.57498C107.798 9.18498 107.908 8.65998 107.978 7.99998H108.323C108.293 8.26998 108.278 8.62998 108.278 9.07998C108.278 9.26998 108.283 9.54498 108.293 9.90498C108.313 10.255 108.343 10.62 108.383 11C107.873 10.98 107.298 10.97 106.658 10.97C106.018 10.96 105.448 10.955 104.948 10.955C104.728 10.955 104.443 10.955 104.093 10.955C103.753 10.955 103.383 10.96 102.983 10.97C102.583 10.97 102.178 10.975 101.768 10.985C101.358 10.985 100.968 10.99 100.598 11V10.7C100.938 10.68 101.193 10.64 101.363 10.58C101.543 10.52 101.663 10.4 101.723 10.22C101.783 10.04 101.813 9.76998 101.813 9.40998V1.96998C101.813 1.59998 101.783 1.32998 101.723 1.15998C101.663 0.979984 101.543 0.859984 101.363 0.799984C101.193 0.729983 100.938 0.689983 100.598 0.679983V0.379984C100.968 0.389984 101.358 0.399984 101.768 0.409983C102.178 0.409983 102.583 0.414983 102.983 0.424983C103.383 0.424983 103.753 0.424983 104.093 0.424983C104.443 0.424983 104.728 0.424983 104.948 0.424983C105.408 0.424983 105.928 0.424983 106.508 0.424983C107.098 0.414983 107.623 0.399984 108.083 0.379984ZM105.503 5.50998C105.503 5.50998 105.503 5.55998 105.503 5.65998C105.503 5.75998 105.503 5.80998 105.503 5.80998H102.758C102.758 5.80998 102.758 5.75998 102.758 5.65998C102.758 5.55998 102.758 5.50998 102.758 5.50998H105.503ZM105.938 3.52998C105.898 4.09998 105.878 4.53498 105.878 4.83498C105.888 5.13498 105.893 5.40998 105.893 5.65998C105.893 5.90998 105.898 6.18498 105.908 6.48498C105.918 6.78498 105.943 7.21998 105.983 7.78998H105.638C105.598 7.46998 105.548 7.15998 105.488 6.85998C105.438 6.54998 105.318 6.29998 105.128 6.10998C104.948 5.90998 104.638 5.80998 104.198 5.80998V5.50998C104.528 5.50998 104.778 5.44498 104.948 5.31498C105.128 5.17498 105.258 4.99998 105.338 4.78998C105.418 4.57998 105.473 4.36498 105.503 4.14498C105.533 3.91498 105.563 3.70998 105.593 3.52998H105.938Z" fill="black"/>
<path d="M114.674 0.169983C115.334 0.169983 115.874 0.269983 116.294 0.469984C116.724 0.659983 117.104 0.884984 117.434 1.14498C117.634 1.29498 117.784 1.31498 117.884 1.20498C117.994 1.08498 118.069 0.809984 118.109 0.379984H118.454C118.434 0.749984 118.419 1.19998 118.409 1.72998C118.399 2.25998 118.394 2.95998 118.394 3.82998H118.049C117.979 3.39998 117.914 3.05998 117.854 2.80998C117.794 2.54998 117.719 2.32998 117.629 2.14998C117.549 1.96998 117.439 1.78998 117.299 1.60998C116.989 1.19998 116.599 0.904983 116.129 0.724983C115.659 0.534983 115.164 0.439983 114.644 0.439983C114.154 0.439983 113.709 0.564983 113.309 0.814984C112.919 1.05498 112.579 1.40498 112.289 1.86498C112.009 2.32498 111.789 2.87998 111.629 3.52998C111.479 4.17998 111.404 4.90998 111.404 5.71998C111.404 6.55998 111.489 7.30498 111.659 7.95498C111.829 8.59498 112.064 9.13498 112.364 9.57498C112.674 10.015 113.034 10.35 113.444 10.58C113.864 10.8 114.314 10.91 114.794 10.91C115.244 10.91 115.714 10.82 116.204 10.64C116.694 10.46 117.079 10.17 117.359 9.76998C117.579 9.47998 117.729 9.16498 117.809 8.82498C117.899 8.48498 117.979 8.00998 118.049 7.39998H118.394C118.394 8.30998 118.399 9.04498 118.409 9.60498C118.419 10.155 118.434 10.62 118.454 11H118.109C118.069 10.57 117.999 10.3 117.899 10.19C117.809 10.08 117.654 10.095 117.434 10.235C117.064 10.495 116.669 10.725 116.249 10.925C115.839 11.115 115.309 11.21 114.659 11.21C113.709 11.21 112.874 10.995 112.154 10.565C111.444 10.135 110.889 9.51498 110.489 8.70498C110.099 7.89498 109.904 6.91998 109.904 5.77998C109.904 4.65998 110.109 3.67998 110.519 2.83998C110.929 1.99998 111.489 1.34498 112.199 0.874984C112.919 0.404983 113.744 0.169983 114.674 0.169983Z" fill="black"/>
<path d="M123.891 0.379984V0.679983C123.551 0.689983 123.291 0.729983 123.111 0.799984C122.941 0.859984 122.826 0.979984 122.766 1.15998C122.706 1.32998 122.676 1.59998 122.676 1.96998V9.40998C122.676 9.76998 122.706 10.04 122.766 10.22C122.826 10.4 122.941 10.52 123.111 10.58C123.291 10.64 123.551 10.68 123.891 10.7V11C123.661 10.98 123.371 10.97 123.021 10.97C122.681 10.96 122.336 10.955 121.986 10.955C121.596 10.955 121.231 10.96 120.891 10.97C120.551 10.97 120.276 10.98 120.066 11V10.7C120.406 10.68 120.661 10.64 120.831 10.58C121.011 10.52 121.131 10.4 121.191 10.22C121.251 10.04 121.281 9.76998 121.281 9.40998V1.96998C121.281 1.59998 121.251 1.32998 121.191 1.15998C121.131 0.979984 121.011 0.859984 120.831 0.799984C120.661 0.729983 120.406 0.689983 120.066 0.679983V0.379984C120.276 0.389984 120.551 0.399984 120.891 0.409983C121.231 0.419983 121.596 0.424983 121.986 0.424983C122.336 0.424983 122.681 0.419983 123.021 0.409983C123.371 0.399984 123.661 0.389984 123.891 0.379984Z" fill="black"/>
<path d="M125.149 0.379984C125.359 0.389984 125.634 0.399984 125.974 0.409983C126.314 0.419983 126.649 0.424983 126.979 0.424983C127.449 0.424983 127.899 0.419983 128.329 0.409983C128.759 0.399984 129.064 0.394984 129.244 0.394984C130.454 0.394984 131.359 0.669984 131.959 1.21998C132.559 1.76998 132.859 2.47998 132.859 3.34998C132.859 3.70998 132.799 4.08998 132.679 4.48998C132.559 4.87998 132.349 5.24498 132.049 5.58498C131.759 5.91498 131.359 6.18498 130.849 6.39498C130.339 6.60498 129.694 6.70998 128.914 6.70998H127.474V6.40998H128.764C129.474 6.40998 130.014 6.27498 130.384 6.00498C130.764 5.73498 131.019 5.37998 131.149 4.93998C131.289 4.49998 131.359 4.02498 131.359 3.51498C131.359 2.56498 131.169 1.85498 130.789 1.38498C130.419 0.914983 129.779 0.679983 128.869 0.679983C128.409 0.679983 128.109 0.764984 127.969 0.934984C127.829 1.10498 127.759 1.44998 127.759 1.96998V9.40998C127.759 9.76998 127.794 10.04 127.864 10.22C127.944 10.4 128.094 10.52 128.314 10.58C128.534 10.64 128.854 10.68 129.274 10.7V11C129.014 10.98 128.684 10.97 128.284 10.97C127.884 10.96 127.479 10.955 127.069 10.955C126.679 10.955 126.314 10.96 125.974 10.97C125.634 10.97 125.359 10.98 125.149 11V10.7C125.489 10.68 125.744 10.64 125.914 10.58C126.094 10.52 126.214 10.4 126.274 10.22C126.334 10.04 126.364 9.76998 126.364 9.40998V1.96998C126.364 1.59998 126.334 1.32998 126.274 1.15998C126.214 0.979984 126.094 0.859984 125.914 0.799984C125.744 0.729983 125.489 0.689983 125.149 0.679983V0.379984Z" fill="black"/>
<path d="M141.408 0.379984C141.368 0.729983 141.338 1.06998 141.318 1.39998C141.308 1.72998 141.303 1.97998 141.303 2.14998C141.303 2.32998 141.308 2.50498 141.318 2.67498C141.328 2.83498 141.338 2.96998 141.348 3.07998H141.003C140.943 2.48998 140.858 2.02498 140.748 1.68498C140.638 1.33498 140.448 1.08998 140.178 0.949984C139.918 0.799983 139.523 0.724983 138.993 0.724983H137.748C137.408 0.724983 137.148 0.754983 136.968 0.814984C136.798 0.864983 136.683 0.979984 136.623 1.15998C136.563 1.32998 136.533 1.59998 136.533 1.96998V9.40998C136.533 9.76998 136.563 10.04 136.623 10.22C136.683 10.4 136.798 10.52 136.968 10.58C137.148 10.63 137.408 10.655 137.748 10.655H138.843C139.473 10.655 139.948 10.57 140.268 10.4C140.598 10.23 140.833 9.95498 140.973 9.57498C141.123 9.18498 141.233 8.65998 141.303 7.99998H141.648C141.618 8.26998 141.603 8.62998 141.603 9.07998C141.603 9.26998 141.608 9.54498 141.618 9.90498C141.638 10.255 141.668 10.62 141.708 11C141.198 10.98 140.623 10.97 139.983 10.97C139.343 10.96 138.773 10.955 138.273 10.955C138.053 10.955 137.768 10.955 137.418 10.955C137.078 10.955 136.708 10.96 136.308 10.97C135.908 10.97 135.503 10.975 135.093 10.985C134.683 10.985 134.293 10.99 133.923 11V10.7C134.263 10.68 134.518 10.64 134.688 10.58C134.868 10.52 134.988 10.4 135.048 10.22C135.108 10.04 135.138 9.76998 135.138 9.40998V1.96998C135.138 1.59998 135.108 1.32998 135.048 1.15998C134.988 0.979984 134.868 0.859984 134.688 0.799984C134.518 0.729983 134.263 0.689983 133.923 0.679983V0.379984C134.293 0.389984 134.683 0.399984 135.093 0.409983C135.503 0.409983 135.908 0.414983 136.308 0.424983C136.708 0.424983 137.078 0.424983 137.418 0.424983C137.768 0.424983 138.053 0.424983 138.273 0.424983C138.733 0.424983 139.253 0.424983 139.833 0.424983C140.423 0.414983 140.948 0.399984 141.408 0.379984ZM138.828 5.50998C138.828 5.50998 138.828 5.55998 138.828 5.65998C138.828 5.75998 138.828 5.80998 138.828 5.80998H136.083C136.083 5.80998 136.083 5.75998 136.083 5.65998C136.083 5.55998 136.083 5.50998 136.083 5.50998H138.828ZM139.263 3.52998C139.223 4.09998 139.203 4.53498 139.203 4.83498C139.213 5.13498 139.218 5.40998 139.218 5.65998C139.218 5.90998 139.223 6.18498 139.233 6.48498C139.243 6.78498 139.268 7.21998 139.308 7.78998H138.963C138.923 7.46998 138.873 7.15998 138.813 6.85998C138.763 6.54998 138.643 6.29998 138.453 6.10998C138.273 5.90998 137.963 5.80998 137.523 5.80998V5.50998C137.853 5.50998 138.103 5.44498 138.273 5.31498C138.453 5.17498 138.583 4.99998 138.663 4.78998C138.743 4.57998 138.798 4.36498 138.828 4.14498C138.858 3.91498 138.888 3.70998 138.918 3.52998H139.263Z" fill="black"/>
<path d="M146.274 0.214983C146.774 0.214983 147.154 0.274983 147.414 0.394984C147.674 0.504983 147.904 0.629983 148.104 0.769983C148.224 0.839984 148.319 0.894984 148.389 0.934984C148.469 0.964983 148.544 0.979983 148.614 0.979983C148.714 0.979983 148.784 0.924983 148.824 0.814984C148.874 0.704983 148.914 0.539983 148.944 0.319984H149.289C149.279 0.489983 149.264 0.694983 149.244 0.934984C149.234 1.16498 149.224 1.47498 149.214 1.86498C149.214 2.24498 149.214 2.74998 149.214 3.37998H148.869C148.839 2.89998 148.734 2.43998 148.554 1.99998C148.374 1.55998 148.109 1.19998 147.759 0.919983C147.419 0.639983 146.969 0.499983 146.409 0.499983C145.879 0.499983 145.439 0.659983 145.089 0.979983C144.749 1.29998 144.579 1.71998 144.579 2.23998C144.579 2.68998 144.694 3.06998 144.924 3.37998C145.154 3.67998 145.459 3.95498 145.839 4.20498C146.229 4.44498 146.649 4.70498 147.099 4.98498C147.619 5.30498 148.079 5.62498 148.479 5.94498C148.889 6.25498 149.209 6.59998 149.439 6.97998C149.679 7.35998 149.799 7.81998 149.799 8.35998C149.799 8.99998 149.654 9.52998 149.364 9.94998C149.074 10.37 148.689 10.685 148.209 10.895C147.729 11.105 147.199 11.21 146.619 11.21C146.089 11.21 145.669 11.15 145.359 11.03C145.049 10.91 144.784 10.785 144.564 10.655C144.344 10.515 144.174 10.445 144.054 10.445C143.954 10.445 143.879 10.5 143.829 10.61C143.789 10.72 143.754 10.885 143.724 11.105H143.379C143.399 10.895 143.409 10.65 143.409 10.37C143.419 10.08 143.424 9.70498 143.424 9.24498C143.434 8.78498 143.439 8.20498 143.439 7.50498H143.784C143.824 8.10498 143.934 8.66498 144.114 9.18498C144.304 9.70498 144.589 10.125 144.969 10.445C145.359 10.755 145.874 10.91 146.514 10.91C146.844 10.91 147.154 10.845 147.444 10.715C147.744 10.575 147.989 10.36 148.179 10.07C148.369 9.76998 148.464 9.38498 148.464 8.91498C148.464 8.50498 148.364 8.14998 148.164 7.84998C147.974 7.53998 147.704 7.25498 147.354 6.99498C147.004 6.72498 146.594 6.44998 146.124 6.16998C145.654 5.87998 145.214 5.58498 144.804 5.28498C144.394 4.98498 144.064 4.63998 143.814 4.24998C143.574 3.84998 143.454 3.36998 143.454 2.80998C143.454 2.21998 143.584 1.73498 143.844 1.35498C144.114 0.964983 144.464 0.679983 144.894 0.499983C145.324 0.309983 145.784 0.214983 146.274 0.214983Z" fill="black"/>
<path d="M62 5.99998C62 7.10455 61.1046 7.99998 60 7.99998C58.8954 7.99998 58 7.10455 58 5.99998C58 4.89541 58.8954 3.99998 60 3.99998C61.1046 3.99998 62 4.89541 62 5.99998Z" fill="black"/>
<path d="M62 5.99998C62 7.10455 61.1046 7.99998 60 7.99998C58.8954 7.99998 58 7.10455 58 5.99998C58 4.89541 58.8954 3.99998 60 3.99998C61.1046 3.99998 62 4.89541 62 5.99998Z" fill="black"/>
<path d="M62 5.99998C62 7.10455 61.1046 7.99998 60 7.99998C58.8954 7.99998 58 7.10455 58 5.99998C58 4.89541 58.8954 3.99998 60 3.99998C61.1046 3.99998 62 4.89541 62 5.99998Z" fill="black"/>
<path d="M87 5.99998C87 7.10455 86.1046 7.99998 85 7.99998C83.8954 7.99998 83 7.10455 83 5.99998C83 4.89541 83.8954 3.99998 85 3.99998C86.1046 3.99998 87 4.89541 87 5.99998Z" fill="black"/>
<path d="M87 5.99998C87 7.10455 86.1046 7.99998 85 7.99998C83.8954 7.99998 83 7.10455 83 5.99998C83 4.89541 83.8954 3.99998 85 3.99998C86.1046 3.99998 87 4.89541 87 5.99998Z" fill="black"/>
<path d="M87 5.99998C87 7.10455 86.1046 7.99998 85 7.99998C83.8954 7.99998 83 7.10455 83 5.99998C83 4.89541 83.8954 3.99998 85 3.99998C86.1046 3.99998 87 4.89541 87 5.99998Z" fill="black"/>
</svg>
