<svg width="300" height="109" viewBox="0 0 300 109" fill="none" xmlns="http://www.w3.org/2000/svg">
<path d="M92 53C92 54.6569 90.6569 56 89 56C87.3431 56 86 54.6569 86 53C86 51.3431 87.3431 50 89 50C90.6569 50 92 51.3431 92 53Z" fill="black" fill-opacity="0.2"/>
<path d="M74 53C74 53.5523 73.5523 54 73 54C72.4477 54 72 53.5523 72 53C72 52.4477 72.4477 52 73 52C73.5523 52 74 52.4477 74 53Z" fill="black"/>
<path d="M70 53C70 53.5523 69.5523 54 69 54C68.4477 54 68 53.5523 68 53C68 52.4477 68.4477 52 69 52C69.5523 52 70 52.4477 70 53Z" fill="black"/>
<path d="M67 53C67 53.5523 66.5523 54 66 54C65.4477 54 65 53.5523 65 53C65 52.4477 65.4477 52 66 52C66.5523 52 67 52.4477 67 53Z" fill="black"/>
<path d="M63 53C63 53.5523 62.5523 54 62 54C61.4477 54 61 53.5523 61 53C61 52.4477 61.4477 52 62 52C62.5523 52 63 52.4477 63 53Z" fill="black"/>
<path d="M59 53C59 53.5523 58.5523 54 58 54C57.4477 54 57 53.5523 57 53C57 52.4477 57.4477 52 58 52C58.5523 52 59 52.4477 59 53Z" fill="black"/>
<path d="M55 53C55 53.5523 54.5523 54 54 54C53.4477 54 53 53.5523 53 53C53 52.4477 53.4477 52 54 52C54.5523 52 55 52.4477 55 53Z" fill="black"/>
<path d="M52 53C52 53.5523 51.5523 54 51 54C50.4477 54 50 53.5523 50 53C50 52.4477 50.4477 52 51 52C51.5523 52 52 52.4477 52 53Z" fill="black"/>
<path d="M48 53C48 53.5523 47.5523 54 47 54C46.4477 54 46 53.5523 46 53C46 52.4477 46.4477 52 47 52C47.5523 52 48 52.4477 48 53Z" fill="black"/>
<path d="M44 53C44 53.5523 43.5523 54 43 54C42.4477 54 42 53.5523 42 53C42 52.4477 42.4477 52 43 52C43.5523 52 44 52.4477 44 53Z" fill="black"/>
<path d="M40 53C40 53.5523 39.5523 54 39 54C38.4477 54 38 53.5523 38 53C38 52.4477 38.4477 52 39 52C39.5523 52 40 52.4477 40 53Z" fill="black"/>
<path d="M37 53C37 53.5523 36.5523 54 36 54C35.4477 54 35 53.5523 35 53C35 52.4477 35.4477 52 36 52C36.5523 52 37 52.4477 37 53Z" fill="black"/>
<path d="M33 53C33 53.5523 32.5523 54 32 54C31.4477 54 31 53.5523 31 53C31 52.4477 31.4477 52 32 52C32.5523 52 33 52.4477 33 53Z" fill="black"/>
<path d="M29 53C29 53.5523 28.5523 54 28 54C27.4477 54 27 53.5523 27 53C27 52.4477 27.4477 52 28 52C28.5523 52 29 52.4477 29 53Z" fill="black"/>
<path d="M25 53C25 53.5523 24.5523 54 24 54C23.4477 54 23 53.5523 23 53C23 52.4477 23.4477 52 24 52C24.5523 52 25 52.4477 25 53Z" fill="black"/>
<path d="M22 53C22 53.5523 21.5523 54 21 54C20.4477 54 20 53.5523 20 53C20 52.4477 20.4477 52 21 52C21.5523 52 22 52.4477 22 53Z" fill="black"/>
<path d="M18 53C18 53.5523 17.5523 54 17 54C16.4477 54 16 53.5523 16 53C16 52.4477 16.4477 52 17 52C17.5523 52 18 52.4477 18 53Z" fill="black"/>
<path d="M65 53C65 53.5523 64.5523 54 64 54C63.4477 54 63 53.5523 63 53C63 52.4477 63.4477 52 64 52C64.5523 52 65 52.4477 65 53Z" fill="black"/>
<path d="M61 53C61 53.5523 60.5523 54 60 54C59.4477 54 59 53.5523 59 53C59 52.4477 59.4477 52 60 52C60.5523 52 61 52.4477 61 53Z" fill="black"/>
<path d="M58 53C58 53.5523 57.5523 54 57 54C56.4477 54 56 53.5523 56 53C56 52.4477 56.4477 52 57 52C57.5523 52 58 52.4477 58 53Z" fill="black"/>
<path d="M54 53C54 53.5523 53.5523 54 53 54C52.4477 54 52 53.5523 52 53C52 52.4477 52.4477 52 53 52C53.5523 52 54 52.4477 54 53Z" fill="black"/>
<path d="M50 53C50 53.5523 49.5523 54 49 54C48.4477 54 48 53.5523 48 53C48 52.4477 48.4477 52 49 52C49.5523 52 50 52.4477 50 53Z" fill="black"/>
<path d="M46 53C46 53.5523 45.5523 54 45 54C44.4477 54 44 53.5523 44 53C44 52.4477 44.4477 52 45 52C45.5523 52 46 52.4477 46 53Z" fill="black"/>
<path d="M43 53C43 53.5523 42.5523 54 42 54C41.4477 54 41 53.5523 41 53C41 52.4477 41.4477 52 42 52C42.5523 52 43 52.4477 43 53Z" fill="black"/>
<path d="M39 53C39 53.5523 38.5523 54 38 54C37.4477 54 37 53.5523 37 53C37 52.4477 37.4477 52 38 52C38.5523 52 39 52.4477 39 53Z" fill="black"/>
<path d="M35 53C35 53.5523 34.5523 54 34 54C33.4477 54 33 53.5523 33 53C33 52.4477 33.4477 52 34 52C34.5523 52 35 52.4477 35 53Z" fill="black"/>
<path d="M31 53C31 53.5523 30.5523 54 30 54C29.4477 54 29 53.5523 29 53C29 52.4477 29.4477 52 30 52C30.5523 52 31 52.4477 31 53Z" fill="black"/>
<path d="M28 53C28 53.5523 27.5523 54 27 54C26.4477 54 26 53.5523 26 53C26 52.4477 26.4477 52 27 52C27.5523 52 28 52.4477 28 53Z" fill="black"/>
<path d="M24 53C24 53.5523 23.5523 54 23 54C22.4477 54 22 53.5523 22 53C22 52.4477 22.4477 52 23 52C23.5523 52 24 52.4477 24 53Z" fill="black"/>
<path d="M20 53C20 53.5523 19.5523 54 19 54C18.4477 54 18 53.5523 18 53C18 52.4477 18.4477 52 19 52C19.5523 52 20 52.4477 20 53Z" fill="black"/>
<path d="M16 53C16 53.5523 15.5523 54 15 54C14.4477 54 14 53.5523 14 53C14 52.4477 14.4477 52 15 52C15.5523 52 16 52.4477 16 53Z" fill="black"/>
<path d="M13 53C13 53.5523 12.5523 54 12 54C11.4477 54 11 53.5523 11 53C11 52.4477 11.4477 52 12 52C12.5523 52 13 52.4477 13 53Z" fill="black"/>
<path d="M9 53C9 53.5523 8.55228 54 8 54C7.44772 54 7 53.5523 7 53C7 52.4477 7.44772 52 8 52C8.55228 52 9 52.4477 9 53Z" fill="black"/>
<path d="M72 53C72 53.5523 71.5523 54 71 54C70.4477 54 70 53.5523 70 53C70 52.4477 70.4477 52 71 52C71.5523 52 72 52.4477 72 53Z" fill="black"/>
<path d="M68 53C68 53.5523 67.5523 54 67 54C66.4477 54 66 53.5523 66 53C66 52.4477 66.4477 52 67 52C67.5523 52 68 52.4477 68 53Z" fill="black"/>
<path d="M65 53C65 53.5523 64.5523 54 64 54C63.4477 54 63 53.5523 63 53C63 52.4477 63.4477 52 64 52C64.5523 52 65 52.4477 65 53Z" fill="black"/>
<path d="M61 53C61 53.5523 60.5523 54 60 54C59.4477 54 59 53.5523 59 53C59 52.4477 59.4477 52 60 52C60.5523 52 61 52.4477 61 53Z" fill="black"/>
<path d="M57 53C57 53.5523 56.5523 54 56 54C55.4477 54 55 53.5523 55 53C55 52.4477 55.4477 52 56 52C56.5523 52 57 52.4477 57 53Z" fill="black"/>
<path d="M53 53C53 53.5523 52.5523 54 52 54C51.4477 54 51 53.5523 51 53C51 52.4477 51.4477 52 52 52C52.5523 52 53 52.4477 53 53Z" fill="black"/>
<path d="M50 53C50 53.5523 49.5523 54 49 54C48.4477 54 48 53.5523 48 53C48 52.4477 48.4477 52 49 52C49.5523 52 50 52.4477 50 53Z" fill="black"/>
<path d="M46 53C46 53.5523 45.5523 54 45 54C44.4477 54 44 53.5523 44 53C44 52.4477 44.4477 52 45 52C45.5523 52 46 52.4477 46 53Z" fill="black"/>
<path d="M42 53C42 53.5523 41.5523 54 41 54C40.4477 54 40 53.5523 40 53C40 52.4477 40.4477 52 41 52C41.5523 52 42 52.4477 42 53Z" fill="black"/>
<path d="M38 53C38 53.5523 37.5523 54 37 54C36.4477 54 36 53.5523 36 53C36 52.4477 36.4477 52 37 52C37.5523 52 38 52.4477 38 53Z" fill="black"/>
<path d="M35 53C35 53.5523 34.5523 54 34 54C33.4477 54 33 53.5523 33 53C33 52.4477 33.4477 52 34 52C34.5523 52 35 52.4477 35 53Z" fill="black"/>
<path d="M31 53C31 53.5523 30.5523 54 30 54C29.4477 54 29 53.5523 29 53C29 52.4477 29.4477 52 30 52C30.5523 52 31 52.4477 31 53Z" fill="black"/>
<path d="M27 53C27 53.5523 26.5523 54 26 54C25.4477 54 25 53.5523 25 53C25 52.4477 25.4477 52 26 52C26.5523 52 27 52.4477 27 53Z" fill="black"/>
<path d="M23 53C23 53.5523 22.5523 54 22 54C21.4477 54 21 53.5523 21 53C21 52.4477 21.4477 52 22 52C22.5523 52 23 52.4477 23 53Z" fill="black"/>
<path d="M20 53C20 53.5523 19.5523 54 19 54C18.4477 54 18 53.5523 18 53C18 52.4477 18.4477 52 19 52C19.5523 52 20 52.4477 20 53Z" fill="black"/>
<path d="M16 53C16 53.5523 15.5523 54 15 54C14.4477 54 14 53.5523 14 53C14 52.4477 14.4477 52 15 52C15.5523 52 16 52.4477 16 53Z" fill="black"/>
<path d="M63 53C63 53.5523 62.5523 54 62 54C61.4477 54 61 53.5523 61 53C61 52.4477 61.4477 52 62 52C62.5523 52 63 52.4477 63 53Z" fill="black"/>
<path d="M59 53C59 53.5523 58.5523 54 58 54C57.4477 54 57 53.5523 57 53C57 52.4477 57.4477 52 58 52C58.5523 52 59 52.4477 59 53Z" fill="black"/>
<path d="M56 53C56 53.5523 55.5523 54 55 54C54.4477 54 54 53.5523 54 53C54 52.4477 54.4477 52 55 52C55.5523 52 56 52.4477 56 53Z" fill="black"/>
<path d="M52 53C52 53.5523 51.5523 54 51 54C50.4477 54 50 53.5523 50 53C50 52.4477 50.4477 52 51 52C51.5523 52 52 52.4477 52 53Z" fill="black"/>
<path d="M48 53C48 53.5523 47.5523 54 47 54C46.4477 54 46 53.5523 46 53C46 52.4477 46.4477 52 47 52C47.5523 52 48 52.4477 48 53Z" fill="black"/>
<path d="M44 53C44 53.5523 43.5523 54 43 54C42.4477 54 42 53.5523 42 53C42 52.4477 42.4477 52 43 52C43.5523 52 44 52.4477 44 53Z" fill="black"/>
<path d="M41 53C41 53.5523 40.5523 54 40 54C39.4477 54 39 53.5523 39 53C39 52.4477 39.4477 52 40 52C40.5523 52 41 52.4477 41 53Z" fill="black"/>
<path d="M37 53C37 53.5523 36.5523 54 36 54C35.4477 54 35 53.5523 35 53C35 52.4477 35.4477 52 36 52C36.5523 52 37 52.4477 37 53Z" fill="black"/>
<path d="M33 53C33 53.5523 32.5523 54 32 54C31.4477 54 31 53.5523 31 53C31 52.4477 31.4477 52 32 52C32.5523 52 33 52.4477 33 53Z" fill="black"/>
<path d="M29 53C29 53.5523 28.5523 54 28 54C27.4477 54 27 53.5523 27 53C27 52.4477 27.4477 52 28 52C28.5523 52 29 52.4477 29 53Z" fill="black"/>
<path d="M26 53C26 53.5523 25.5523 54 25 54C24.4477 54 24 53.5523 24 53C24 52.4477 24.4477 52 25 52C25.5523 52 26 52.4477 26 53Z" fill="black"/>
<path d="M22 53C22 53.5523 21.5523 54 21 54C20.4477 54 20 53.5523 20 53C20 52.4477 20.4477 52 21 52C21.5523 52 22 52.4477 22 53Z" fill="black"/>
<path d="M18 53C18 53.5523 17.5523 54 17 54C16.4477 54 16 53.5523 16 53C16 52.4477 16.4477 52 17 52C17.5523 52 18 52.4477 18 53Z" fill="black"/>
<path d="M14 53C14 53.5523 13.5523 54 13 54C12.4477 54 12 53.5523 12 53C12 52.4477 12.4477 52 13 52C13.5523 52 14 52.4477 14 53Z" fill="black"/>
<path d="M11 53C11 53.5523 10.5523 54 10 54C9.44772 54 9 53.5523 9 53C9 52.4477 9.44772 52 10 52C10.5523 52 11 52.4477 11 53Z" fill="black"/>
<path d="M7 53C7 53.5523 6.55228 54 6 54C5.44772 54 5 53.5523 5 53C5 52.4477 5.44772 52 6 52C6.55228 52 7 52.4477 7 53Z" fill="black"/>
<path d="M69 53C69 53.5523 68.5523 54 68 54C67.4477 54 67 53.5523 67 53C67 52.4477 67.4477 52 68 52C68.5523 52 69 52.4477 69 53Z" fill="black"/>
<path d="M65 53C65 53.5523 64.5523 54 64 54C63.4477 54 63 53.5523 63 53C63 52.4477 63.4477 52 64 52C64.5523 52 65 52.4477 65 53Z" fill="black"/>
<path d="M62 53C62 53.5523 61.5523 54 61 54C60.4477 54 60 53.5523 60 53C60 52.4477 60.4477 52 61 52C61.5523 52 62 52.4477 62 53Z" fill="black"/>
<path d="M58 53C58 53.5523 57.5523 54 57 54C56.4477 54 56 53.5523 56 53C56 52.4477 56.4477 52 57 52C57.5523 52 58 52.4477 58 53Z" fill="black"/>
<path d="M54 53C54 53.5523 53.5523 54 53 54C52.4477 54 52 53.5523 52 53C52 52.4477 52.4477 52 53 52C53.5523 52 54 52.4477 54 53Z" fill="black"/>
<path d="M50 53C50 53.5523 49.5523 54 49 54C48.4477 54 48 53.5523 48 53C48 52.4477 48.4477 52 49 52C49.5523 52 50 52.4477 50 53Z" fill="black"/>
<path d="M47 53C47 53.5523 46.5523 54 46 54C45.4477 54 45 53.5523 45 53C45 52.4477 45.4477 52 46 52C46.5523 52 47 52.4477 47 53Z" fill="black"/>
<path d="M43 53C43 53.5523 42.5523 54 42 54C41.4477 54 41 53.5523 41 53C41 52.4477 41.4477 52 42 52C42.5523 52 43 52.4477 43 53Z" fill="black"/>
<path d="M39 53C39 53.5523 38.5523 54 38 54C37.4477 54 37 53.5523 37 53C37 52.4477 37.4477 52 38 52C38.5523 52 39 52.4477 39 53Z" fill="black"/>
<path d="M35 53C35 53.5523 34.5523 54 34 54C33.4477 54 33 53.5523 33 53C33 52.4477 33.4477 52 34 52C34.5523 52 35 52.4477 35 53Z" fill="black"/>
<path d="M32 53C32 53.5523 31.5523 54 31 54C30.4477 54 30 53.5523 30 53C30 52.4477 30.4477 52 31 52C31.5523 52 32 52.4477 32 53Z" fill="black"/>
<path d="M28 53C28 53.5523 27.5523 54 27 54C26.4477 54 26 53.5523 26 53C26 52.4477 26.4477 52 27 52C27.5523 52 28 52.4477 28 53Z" fill="black"/>
<path d="M24 53C24 53.5523 23.5523 54 23 54C22.4477 54 22 53.5523 22 53C22 52.4477 22.4477 52 23 52C23.5523 52 24 52.4477 24 53Z" fill="black"/>
<path d="M20 53C20 53.5523 19.5523 54 19 54C18.4477 54 18 53.5523 18 53C18 52.4477 18.4477 52 19 52C19.5523 52 20 52.4477 20 53Z" fill="black"/>
<path d="M17 53C17 53.5523 16.5523 54 16 54C15.4477 54 15 53.5523 15 53C15 52.4477 15.4477 52 16 52C16.5523 52 17 52.4477 17 53Z" fill="black"/>
<path d="M13 53C13 53.5523 12.5523 54 12 54C11.4477 54 11 53.5523 11 53C11 52.4477 11.4477 52 12 52C12.5523 52 13 52.4477 13 53Z" fill="black"/>
<path d="M60 53C60 53.5523 59.5523 54 59 54C58.4477 54 58 53.5523 58 53C58 52.4477 58.4477 52 59 52C59.5523 52 60 52.4477 60 53Z" fill="black"/>
<path d="M56 53C56 53.5523 55.5523 54 55 54C54.4477 54 54 53.5523 54 53C54 52.4477 54.4477 52 55 52C55.5523 52 56 52.4477 56 53Z" fill="black"/>
<path d="M53 53C53 53.5523 52.5523 54 52 54C51.4477 54 51 53.5523 51 53C51 52.4477 51.4477 52 52 52C52.5523 52 53 52.4477 53 53Z" fill="black"/>
<path d="M49 53C49 53.5523 48.5523 54 48 54C47.4477 54 47 53.5523 47 53C47 52.4477 47.4477 52 48 52C48.5523 52 49 52.4477 49 53Z" fill="black"/>
<path d="M45 53C45 53.5523 44.5523 54 44 54C43.4477 54 43 53.5523 43 53C43 52.4477 43.4477 52 44 52C44.5523 52 45 52.4477 45 53Z" fill="black"/>
<path d="M41 53C41 53.5523 40.5523 54 40 54C39.4477 54 39 53.5523 39 53C39 52.4477 39.4477 52 40 52C40.5523 52 41 52.4477 41 53Z" fill="black"/>
<path d="M38 53C38 53.5523 37.5523 54 37 54C36.4477 54 36 53.5523 36 53C36 52.4477 36.4477 52 37 52C37.5523 52 38 52.4477 38 53Z" fill="black"/>
<path d="M34 53C34 53.5523 33.5523 54 33 54C32.4477 54 32 53.5523 32 53C32 52.4477 32.4477 52 33 52C33.5523 52 34 52.4477 34 53Z" fill="black"/>
<path d="M30 53C30 53.5523 29.5523 54 29 54C28.4477 54 28 53.5523 28 53C28 52.4477 28.4477 52 29 52C29.5523 52 30 52.4477 30 53Z" fill="black"/>
<path d="M26 53C26 53.5523 25.5523 54 25 54C24.4477 54 24 53.5523 24 53C24 52.4477 24.4477 52 25 52C25.5523 52 26 52.4477 26 53Z" fill="black"/>
<path d="M23 53C23 53.5523 22.5523 54 22 54C21.4477 54 21 53.5523 21 53C21 52.4477 21.4477 52 22 52C22.5523 52 23 52.4477 23 53Z" fill="black"/>
<path d="M19 53C19 53.5523 18.5523 54 18 54C17.4477 54 17 53.5523 17 53C17 52.4477 17.4477 52 18 52C18.5523 52 19 52.4477 19 53Z" fill="black"/>
<path d="M15 53C15 53.5523 14.5523 54 14 54C13.4477 54 13 53.5523 13 53C13 52.4477 13.4477 52 14 52C14.5523 52 15 52.4477 15 53Z" fill="black"/>
<path d="M11 53C11 53.5523 10.5523 54 10 54C9.44772 54 9 53.5523 9 53C9 52.4477 9.44772 52 10 52C10.5523 52 11 52.4477 11 53Z" fill="black"/>
<path d="M8 53C8 53.5523 7.55228 54 7 54C6.44772 54 6 53.5523 6 53C6 52.4477 6.44772 52 7 52C7.55228 52 8 52.4477 8 53Z" fill="black"/>
<path d="M4 53C4 53.5523 3.55228 54 3 54C2.44772 54 2 53.5523 2 53C2 52.4477 2.44772 52 3 52C3.55228 52 4 52.4477 4 53Z" fill="black"/>
<path d="M67 53C67 53.5523 66.5523 54 66 54C65.4477 54 65 53.5523 65 53C65 52.4477 65.4477 52 66 52C66.5523 52 67 52.4477 67 53Z" fill="black"/>
<path d="M63 53C63 53.5523 62.5523 54 62 54C61.4477 54 61 53.5523 61 53C61 52.4477 61.4477 52 62 52C62.5523 52 63 52.4477 63 53Z" fill="black"/>
<path d="M60 53C60 53.5523 59.5523 54 59 54C58.4477 54 58 53.5523 58 53C58 52.4477 58.4477 52 59 52C59.5523 52 60 52.4477 60 53Z" fill="black"/>
<path d="M56 53C56 53.5523 55.5523 54 55 54C54.4477 54 54 53.5523 54 53C54 52.4477 54.4477 52 55 52C55.5523 52 56 52.4477 56 53Z" fill="black"/>
<path d="M52 53C52 53.5523 51.5523 54 51 54C50.4477 54 50 53.5523 50 53C50 52.4477 50.4477 52 51 52C51.5523 52 52 52.4477 52 53Z" fill="black"/>
<path d="M48 53C48 53.5523 47.5523 54 47 54C46.4477 54 46 53.5523 46 53C46 52.4477 46.4477 52 47 52C47.5523 52 48 52.4477 48 53Z" fill="black"/>
<path d="M45 53C45 53.5523 44.5523 54 44 54C43.4477 54 43 53.5523 43 53C43 52.4477 43.4477 52 44 52C44.5523 52 45 52.4477 45 53Z" fill="black"/>
<path d="M41 53C41 53.5523 40.5523 54 40 54C39.4477 54 39 53.5523 39 53C39 52.4477 39.4477 52 40 52C40.5523 52 41 52.4477 41 53Z" fill="black"/>
<path d="M37 53C37 53.5523 36.5523 54 36 54C35.4477 54 35 53.5523 35 53C35 52.4477 35.4477 52 36 52C36.5523 52 37 52.4477 37 53Z" fill="black"/>
<path d="M33 53C33 53.5523 32.5523 54 32 54C31.4477 54 31 53.5523 31 53C31 52.4477 31.4477 52 32 52C32.5523 52 33 52.4477 33 53Z" fill="black"/>
<path d="M30 53C30 53.5523 29.5523 54 29 54C28.4477 54 28 53.5523 28 53C28 52.4477 28.4477 52 29 52C29.5523 52 30 52.4477 30 53Z" fill="black"/>
<path d="M26 53C26 53.5523 25.5523 54 25 54C24.4477 54 24 53.5523 24 53C24 52.4477 24.4477 52 25 52C25.5523 52 26 52.4477 26 53Z" fill="black"/>
<path d="M22 53C22 53.5523 21.5523 54 21 54C20.4477 54 20 53.5523 20 53C20 52.4477 20.4477 52 21 52C21.5523 52 22 52.4477 22 53Z" fill="black"/>
<path d="M18 53C18 53.5523 17.5523 54 17 54C16.4477 54 16 53.5523 16 53C16 52.4477 16.4477 52 17 52C17.5523 52 18 52.4477 18 53Z" fill="black"/>
<path d="M15 53C15 53.5523 14.5523 54 14 54C13.4477 54 13 53.5523 13 53C13 52.4477 13.4477 52 14 52C14.5523 52 15 52.4477 15 53Z" fill="black"/>
<path d="M11 53C11 53.5523 10.5523 54 10 54C9.44772 54 9 53.5523 9 53C9 52.4477 9.44772 52 10 52C10.5523 52 11 52.4477 11 53Z" fill="black"/>
<path d="M58 53C58 53.5523 57.5523 54 57 54C56.4477 54 56 53.5523 56 53C56 52.4477 56.4477 52 57 52C57.5523 52 58 52.4477 58 53Z" fill="black"/>
<path d="M54 53C54 53.5523 53.5523 54 53 54C52.4477 54 52 53.5523 52 53C52 52.4477 52.4477 52 53 52C53.5523 52 54 52.4477 54 53Z" fill="black"/>
<path d="M51 53C51 53.5523 50.5523 54 50 54C49.4477 54 49 53.5523 49 53C49 52.4477 49.4477 52 50 52C50.5523 52 51 52.4477 51 53Z" fill="black"/>
<path d="M47 53C47 53.5523 46.5523 54 46 54C45.4477 54 45 53.5523 45 53C45 52.4477 45.4477 52 46 52C46.5523 52 47 52.4477 47 53Z" fill="black"/>
<path d="M43 53C43 53.5523 42.5523 54 42 54C41.4477 54 41 53.5523 41 53C41 52.4477 41.4477 52 42 52C42.5523 52 43 52.4477 43 53Z" fill="black"/>
<path d="M39 53C39 53.5523 38.5523 54 38 54C37.4477 54 37 53.5523 37 53C37 52.4477 37.4477 52 38 52C38.5523 52 39 52.4477 39 53Z" fill="black"/>
<path d="M36 53C36 53.5523 35.5523 54 35 54C34.4477 54 34 53.5523 34 53C34 52.4477 34.4477 52 35 52C35.5523 52 36 52.4477 36 53Z" fill="black"/>
<path d="M32 53C32 53.5523 31.5523 54 31 54C30.4477 54 30 53.5523 30 53C30 52.4477 30.4477 52 31 52C31.5523 52 32 52.4477 32 53Z" fill="black"/>
<path d="M28 53C28 53.5523 27.5523 54 27 54C26.4477 54 26 53.5523 26 53C26 52.4477 26.4477 52 27 52C27.5523 52 28 52.4477 28 53Z" fill="black"/>
<path d="M24 53C24 53.5523 23.5523 54 23 54C22.4477 54 22 53.5523 22 53C22 52.4477 22.4477 52 23 52C23.5523 52 24 52.4477 24 53Z" fill="black"/>
<path d="M21 53C21 53.5523 20.5523 54 20 54C19.4477 54 19 53.5523 19 53C19 52.4477 19.4477 52 20 52C20.5523 52 21 52.4477 21 53Z" fill="black"/>
<path d="M17 53C17 53.5523 16.5523 54 16 54C15.4477 54 15 53.5523 15 53C15 52.4477 15.4477 52 16 52C16.5523 52 17 52.4477 17 53Z" fill="black"/>
<path d="M13 53C13 53.5523 12.5523 54 12 54C11.4477 54 11 53.5523 11 53C11 52.4477 11.4477 52 12 52C12.5523 52 13 52.4477 13 53Z" fill="black"/>
<path d="M9 53C9 53.5523 8.55228 54 8 54C7.44772 54 7 53.5523 7 53C7 52.4477 7.44772 52 8 52C8.55228 52 9 52.4477 9 53Z" fill="black"/>
<path d="M6 53C6 53.5523 5.55228 54 5 54C4.44772 54 4 53.5523 4 53C4 52.4477 4.44772 52 5 52C5.55228 52 6 52.4477 6 53Z" fill="black"/>
<path d="M2 53C2 53.5523 1.55228 54 1 54C0.447715 54 0 53.5523 0 53C0 52.4477 0.447715 52 1 52C1.55228 52 2 52.4477 2 53Z" fill="black"/>
<path d="M82 53C82 53.5523 81.5523 54 81 54C80.4477 54 80 53.5523 80 53C80 52.4477 80.4477 52 81 52C81.5523 52 82 52.4477 82 53Z" fill="black"/>
<path d="M78 53C78 53.5523 77.5523 54 77 54C76.4477 54 76 53.5523 76 53C76 52.4477 76.4477 52 77 52C77.5523 52 78 52.4477 78 53Z" fill="black"/>
<path d="M75 53C75 53.5523 74.5523 54 74 54C73.4477 54 73 53.5523 73 53C73 52.4477 73.4477 52 74 52C74.5523 52 75 52.4477 75 53Z" fill="black"/>
<path d="M71 53C71 53.5523 70.5523 54 70 54C69.4477 54 69 53.5523 69 53C69 52.4477 69.4477 52 70 52C70.5523 52 71 52.4477 71 53Z" fill="black"/>
<path d="M67 53C67 53.5523 66.5523 54 66 54C65.4477 54 65 53.5523 65 53C65 52.4477 65.4477 52 66 52C66.5523 52 67 52.4477 67 53Z" fill="black"/>
<path d="M63 53C63 53.5523 62.5523 54 62 54C61.4477 54 61 53.5523 61 53C61 52.4477 61.4477 52 62 52C62.5523 52 63 52.4477 63 53Z" fill="black"/>
<path d="M60 53C60 53.5523 59.5523 54 59 54C58.4477 54 58 53.5523 58 53C58 52.4477 58.4477 52 59 52C59.5523 52 60 52.4477 60 53Z" fill="black"/>
<path d="M56 53C56 53.5523 55.5523 54 55 54C54.4477 54 54 53.5523 54 53C54 52.4477 54.4477 52 55 52C55.5523 52 56 52.4477 56 53Z" fill="black"/>
<path d="M52 53C52 53.5523 51.5523 54 51 54C50.4477 54 50 53.5523 50 53C50 52.4477 50.4477 52 51 52C51.5523 52 52 52.4477 52 53Z" fill="black"/>
<path d="M48 53C48 53.5523 47.5523 54 47 54C46.4477 54 46 53.5523 46 53C46 52.4477 46.4477 52 47 52C47.5523 52 48 52.4477 48 53Z" fill="black"/>
<path d="M45 53C45 53.5523 44.5523 54 44 54C43.4477 54 43 53.5523 43 53C43 52.4477 43.4477 52 44 52C44.5523 52 45 52.4477 45 53Z" fill="black"/>
<path d="M41 53C41 53.5523 40.5523 54 40 54C39.4477 54 39 53.5523 39 53C39 52.4477 39.4477 52 40 52C40.5523 52 41 52.4477 41 53Z" fill="black"/>
<path d="M37 53C37 53.5523 36.5523 54 36 54C35.4477 54 35 53.5523 35 53C35 52.4477 35.4477 52 36 52C36.5523 52 37 52.4477 37 53Z" fill="black"/>
<path d="M33 53C33 53.5523 32.5523 54 32 54C31.4477 54 31 53.5523 31 53C31 52.4477 31.4477 52 32 52C32.5523 52 33 52.4477 33 53Z" fill="black"/>
<path d="M30 53C30 53.5523 29.5523 54 29 54C28.4477 54 28 53.5523 28 53C28 52.4477 28.4477 52 29 52C29.5523 52 30 52.4477 30 53Z" fill="black"/>
<path d="M26 53C26 53.5523 25.5523 54 25 54C24.4477 54 24 53.5523 24 53C24 52.4477 24.4477 52 25 52C25.5523 52 26 52.4477 26 53Z" fill="black"/>
<path d="M73 53C73 53.5523 72.5523 54 72 54C71.4477 54 71 53.5523 71 53C71 52.4477 71.4477 52 72 52C72.5523 52 73 52.4477 73 53Z" fill="black"/>
<path d="M69 53C69 53.5523 68.5523 54 68 54C67.4477 54 67 53.5523 67 53C67 52.4477 67.4477 52 68 52C68.5523 52 69 52.4477 69 53Z" fill="black"/>
<path d="M66 53C66 53.5523 65.5523 54 65 54C64.4477 54 64 53.5523 64 53C64 52.4477 64.4477 52 65 52C65.5523 52 66 52.4477 66 53Z" fill="black"/>
<path d="M62 53C62 53.5523 61.5523 54 61 54C60.4477 54 60 53.5523 60 53C60 52.4477 60.4477 52 61 52C61.5523 52 62 52.4477 62 53Z" fill="black"/>
<path d="M58 53C58 53.5523 57.5523 54 57 54C56.4477 54 56 53.5523 56 53C56 52.4477 56.4477 52 57 52C57.5523 52 58 52.4477 58 53Z" fill="black"/>
<path d="M54 53C54 53.5523 53.5523 54 53 54C52.4477 54 52 53.5523 52 53C52 52.4477 52.4477 52 53 52C53.5523 52 54 52.4477 54 53Z" fill="black"/>
<path d="M51 53C51 53.5523 50.5523 54 50 54C49.4477 54 49 53.5523 49 53C49 52.4477 49.4477 52 50 52C50.5523 52 51 52.4477 51 53Z" fill="black"/>
<path d="M47 53C47 53.5523 46.5523 54 46 54C45.4477 54 45 53.5523 45 53C45 52.4477 45.4477 52 46 52C46.5523 52 47 52.4477 47 53Z" fill="black"/>
<path d="M43 53C43 53.5523 42.5523 54 42 54C41.4477 54 41 53.5523 41 53C41 52.4477 41.4477 52 42 52C42.5523 52 43 52.4477 43 53Z" fill="black"/>
<path d="M39 53C39 53.5523 38.5523 54 38 54C37.4477 54 37 53.5523 37 53C37 52.4477 37.4477 52 38 52C38.5523 52 39 52.4477 39 53Z" fill="black"/>
<path d="M36 53C36 53.5523 35.5523 54 35 54C34.4477 54 34 53.5523 34 53C34 52.4477 34.4477 52 35 52C35.5523 52 36 52.4477 36 53Z" fill="black"/>
<path d="M32 53C32 53.5523 31.5523 54 31 54C30.4477 54 30 53.5523 30 53C30 52.4477 30.4477 52 31 52C31.5523 52 32 52.4477 32 53Z" fill="black"/>
<path d="M28 53C28 53.5523 27.5523 54 27 54C26.4477 54 26 53.5523 26 53C26 52.4477 26.4477 52 27 52C27.5523 52 28 52.4477 28 53Z" fill="black"/>
<path d="M24 53C24 53.5523 23.5523 54 23 54C22.4477 54 22 53.5523 22 53C22 52.4477 22.4477 52 23 52C23.5523 52 24 52.4477 24 53Z" fill="black"/>
<path d="M21 53C21 53.5523 20.5523 54 20 54C19.4477 54 19 53.5523 19 53C19 52.4477 19.4477 52 20 52C20.5523 52 21 52.4477 21 53Z" fill="black"/>
<path d="M17 53C17 53.5523 16.5523 54 16 54C15.4477 54 15 53.5523 15 53C15 52.4477 15.4477 52 16 52C16.5523 52 17 52.4477 17 53Z" fill="black"/>
<path d="M80 53C80 53.5523 79.5523 54 79 54C78.4477 54 78 53.5523 78 53C78 52.4477 78.4477 52 79 52C79.5523 52 80 52.4477 80 53Z" fill="black"/>
<path d="M76 53C76 53.5523 75.5523 54 75 54C74.4477 54 74 53.5523 74 53C74 52.4477 74.4477 52 75 52C75.5523 52 76 52.4477 76 53Z" fill="black"/>
<path d="M73 53C73 53.5523 72.5523 54 72 54C71.4477 54 71 53.5523 71 53C71 52.4477 71.4477 52 72 52C72.5523 52 73 52.4477 73 53Z" fill="black"/>
<path d="M69 53C69 53.5523 68.5523 54 68 54C67.4477 54 67 53.5523 67 53C67 52.4477 67.4477 52 68 52C68.5523 52 69 52.4477 69 53Z" fill="black"/>
<path d="M65 53C65 53.5523 64.5523 54 64 54C63.4477 54 63 53.5523 63 53C63 52.4477 63.4477 52 64 52C64.5523 52 65 52.4477 65 53Z" fill="black"/>
<path d="M61 53C61 53.5523 60.5523 54 60 54C59.4477 54 59 53.5523 59 53C59 52.4477 59.4477 52 60 52C60.5523 52 61 52.4477 61 53Z" fill="black"/>
<path d="M58 53C58 53.5523 57.5523 54 57 54C56.4477 54 56 53.5523 56 53C56 52.4477 56.4477 52 57 52C57.5523 52 58 52.4477 58 53Z" fill="black"/>
<path d="M54 53C54 53.5523 53.5523 54 53 54C52.4477 54 52 53.5523 52 53C52 52.4477 52.4477 52 53 52C53.5523 52 54 52.4477 54 53Z" fill="black"/>
<path d="M50 53C50 53.5523 49.5523 54 49 54C48.4477 54 48 53.5523 48 53C48 52.4477 48.4477 52 49 52C49.5523 52 50 52.4477 50 53Z" fill="black"/>
<path d="M46 53C46 53.5523 45.5523 54 45 54C44.4477 54 44 53.5523 44 53C44 52.4477 44.4477 52 45 52C45.5523 52 46 52.4477 46 53Z" fill="black"/>
<path d="M43 53C43 53.5523 42.5523 54 42 54C41.4477 54 41 53.5523 41 53C41 52.4477 41.4477 52 42 52C42.5523 52 43 52.4477 43 53Z" fill="black"/>
<path d="M39 53C39 53.5523 38.5523 54 38 54C37.4477 54 37 53.5523 37 53C37 52.4477 37.4477 52 38 52C38.5523 52 39 52.4477 39 53Z" fill="black"/>
<path d="M35 53C35 53.5523 34.5523 54 34 54C33.4477 54 33 53.5523 33 53C33 52.4477 33.4477 52 34 52C34.5523 52 35 52.4477 35 53Z" fill="black"/>
<path d="M31 53C31 53.5523 30.5523 54 30 54C29.4477 54 29 53.5523 29 53C29 52.4477 29.4477 52 30 52C30.5523 52 31 52.4477 31 53Z" fill="black"/>
<path d="M28 53C28 53.5523 27.5523 54 27 54C26.4477 54 26 53.5523 26 53C26 52.4477 26.4477 52 27 52C27.5523 52 28 52.4477 28 53Z" fill="black"/>
<path d="M24 53C24 53.5523 23.5523 54 23 54C22.4477 54 22 53.5523 22 53C22 52.4477 22.4477 52 23 52C23.5523 52 24 52.4477 24 53Z" fill="black"/>
<path d="M71 53C71 53.5523 70.5523 54 70 54C69.4477 54 69 53.5523 69 53C69 52.4477 69.4477 52 70 52C70.5523 52 71 52.4477 71 53Z" fill="black"/>
<path d="M67 53C67 53.5523 66.5523 54 66 54C65.4477 54 65 53.5523 65 53C65 52.4477 65.4477 52 66 52C66.5523 52 67 52.4477 67 53Z" fill="black"/>
<path d="M64 53C64 53.5523 63.5523 54 63 54C62.4477 54 62 53.5523 62 53C62 52.4477 62.4477 52 63 52C63.5523 52 64 52.4477 64 53Z" fill="black"/>
<path d="M60 53C60 53.5523 59.5523 54 59 54C58.4477 54 58 53.5523 58 53C58 52.4477 58.4477 52 59 52C59.5523 52 60 52.4477 60 53Z" fill="black"/>
<path d="M56 53C56 53.5523 55.5523 54 55 54C54.4477 54 54 53.5523 54 53C54 52.4477 54.4477 52 55 52C55.5523 52 56 52.4477 56 53Z" fill="black"/>
<path d="M52 53C52 53.5523 51.5523 54 51 54C50.4477 54 50 53.5523 50 53C50 52.4477 50.4477 52 51 52C51.5523 52 52 52.4477 52 53Z" fill="black"/>
<path d="M49 53C49 53.5523 48.5523 54 48 54C47.4477 54 47 53.5523 47 53C47 52.4477 47.4477 52 48 52C48.5523 52 49 52.4477 49 53Z" fill="black"/>
<path d="M45 53C45 53.5523 44.5523 54 44 54C43.4477 54 43 53.5523 43 53C43 52.4477 43.4477 52 44 52C44.5523 52 45 52.4477 45 53Z" fill="black"/>
<path d="M41 53C41 53.5523 40.5523 54 40 54C39.4477 54 39 53.5523 39 53C39 52.4477 39.4477 52 40 52C40.5523 52 41 52.4477 41 53Z" fill="black"/>
<path d="M37 53C37 53.5523 36.5523 54 36 54C35.4477 54 35 53.5523 35 53C35 52.4477 35.4477 52 36 52C36.5523 52 37 52.4477 37 53Z" fill="black"/>
<path d="M34 53C34 53.5523 33.5523 54 33 54C32.4477 54 32 53.5523 32 53C32 52.4477 32.4477 52 33 52C33.5523 52 34 52.4477 34 53Z" fill="black"/>
<path d="M30 53C30 53.5523 29.5523 54 29 54C28.4477 54 28 53.5523 28 53C28 52.4477 28.4477 52 29 52C29.5523 52 30 52.4477 30 53Z" fill="black"/>
<path d="M26 53C26 53.5523 25.5523 54 25 54C24.4477 54 24 53.5523 24 53C24 52.4477 24.4477 52 25 52C25.5523 52 26 52.4477 26 53Z" fill="black"/>
<path d="M22 53C22 53.5523 21.5523 54 21 54C20.4477 54 20 53.5523 20 53C20 52.4477 20.4477 52 21 52C21.5523 52 22 52.4477 22 53Z" fill="black"/>
<path d="M19 53C19 53.5523 18.5523 54 18 54C17.4477 54 17 53.5523 17 53C17 52.4477 17.4477 52 18 52C18.5523 52 19 52.4477 19 53Z" fill="black"/>
<path d="M15 53C15 53.5523 14.5523 54 14 54C13.4477 54 13 53.5523 13 53C13 52.4477 13.4477 52 14 52C14.5523 52 15 52.4477 15 53Z" fill="black"/>
<path d="M77 53C77 53.5523 76.5523 54 76 54C75.4477 54 75 53.5523 75 53C75 52.4477 75.4477 52 76 52C76.5523 52 77 52.4477 77 53Z" fill="black"/>
<path d="M73 53C73 53.5523 72.5523 54 72 54C71.4477 54 71 53.5523 71 53C71 52.4477 71.4477 52 72 52C72.5523 52 73 52.4477 73 53Z" fill="black"/>
<path d="M70 53C70 53.5523 69.5523 54 69 54C68.4477 54 68 53.5523 68 53C68 52.4477 68.4477 52 69 52C69.5523 52 70 52.4477 70 53Z" fill="black"/>
<path d="M66 53C66 53.5523 65.5523 54 65 54C64.4477 54 64 53.5523 64 53C64 52.4477 64.4477 52 65 52C65.5523 52 66 52.4477 66 53Z" fill="black"/>
<path d="M62 53C62 53.5523 61.5523 54 61 54C60.4477 54 60 53.5523 60 53C60 52.4477 60.4477 52 61 52C61.5523 52 62 52.4477 62 53Z" fill="black"/>
<path d="M58 53C58 53.5523 57.5523 54 57 54C56.4477 54 56 53.5523 56 53C56 52.4477 56.4477 52 57 52C57.5523 52 58 52.4477 58 53Z" fill="black"/>
<path d="M55 53C55 53.5523 54.5523 54 54 54C53.4477 54 53 53.5523 53 53C53 52.4477 53.4477 52 54 52C54.5523 52 55 52.4477 55 53Z" fill="black"/>
<path d="M51 53C51 53.5523 50.5523 54 50 54C49.4477 54 49 53.5523 49 53C49 52.4477 49.4477 52 50 52C50.5523 52 51 52.4477 51 53Z" fill="black"/>
<path d="M47 53C47 53.5523 46.5523 54 46 54C45.4477 54 45 53.5523 45 53C45 52.4477 45.4477 52 46 52C46.5523 52 47 52.4477 47 53Z" fill="black"/>
<path d="M43 53C43 53.5523 42.5523 54 42 54C41.4477 54 41 53.5523 41 53C41 52.4477 41.4477 52 42 52C42.5523 52 43 52.4477 43 53Z" fill="black"/>
<path d="M40 53C40 53.5523 39.5523 54 39 54C38.4477 54 38 53.5523 38 53C38 52.4477 38.4477 52 39 52C39.5523 52 40 52.4477 40 53Z" fill="black"/>
<path d="M36 53C36 53.5523 35.5523 54 35 54C34.4477 54 34 53.5523 34 53C34 52.4477 34.4477 52 35 52C35.5523 52 36 52.4477 36 53Z" fill="black"/>
<path d="M32 53C32 53.5523 31.5523 54 31 54C30.4477 54 30 53.5523 30 53C30 52.4477 30.4477 52 31 52C31.5523 52 32 52.4477 32 53Z" fill="black"/>
<path d="M28 53C28 53.5523 27.5523 54 27 54C26.4477 54 26 53.5523 26 53C26 52.4477 26.4477 52 27 52C27.5523 52 28 52.4477 28 53Z" fill="black"/>
<path d="M25 53C25 53.5523 24.5523 54 24 54C23.4477 54 23 53.5523 23 53C23 52.4477 23.4477 52 24 52C24.5523 52 25 52.4477 25 53Z" fill="black"/>
<path d="M21 53C21 53.5523 20.5523 54 20 54C19.4477 54 19 53.5523 19 53C19 52.4477 19.4477 52 20 52C20.5523 52 21 52.4477 21 53Z" fill="black"/>
<path d="M68 53C68 53.5523 67.5523 54 67 54C66.4477 54 66 53.5523 66 53C66 52.4477 66.4477 52 67 52C67.5523 52 68 52.4477 68 53Z" fill="black"/>
<path d="M64 53C64 53.5523 63.5523 54 63 54C62.4477 54 62 53.5523 62 53C62 52.4477 62.4477 52 63 52C63.5523 52 64 52.4477 64 53Z" fill="black"/>
<path d="M61 53C61 53.5523 60.5523 54 60 54C59.4477 54 59 53.5523 59 53C59 52.4477 59.4477 52 60 52C60.5523 52 61 52.4477 61 53Z" fill="black"/>
<path d="M57 53C57 53.5523 56.5523 54 56 54C55.4477 54 55 53.5523 55 53C55 52.4477 55.4477 52 56 52C56.5523 52 57 52.4477 57 53Z" fill="black"/>
<path d="M53 53C53 53.5523 52.5523 54 52 54C51.4477 54 51 53.5523 51 53C51 52.4477 51.4477 52 52 52C52.5523 52 53 52.4477 53 53Z" fill="black"/>
<path d="M49 53C49 53.5523 48.5523 54 48 54C47.4477 54 47 53.5523 47 53C47 52.4477 47.4477 52 48 52C48.5523 52 49 52.4477 49 53Z" fill="black"/>
<path d="M46 53C46 53.5523 45.5523 54 45 54C44.4477 54 44 53.5523 44 53C44 52.4477 44.4477 52 45 52C45.5523 52 46 52.4477 46 53Z" fill="black"/>
<path d="M42 53C42 53.5523 41.5523 54 41 54C40.4477 54 40 53.5523 40 53C40 52.4477 40.4477 52 41 52C41.5523 52 42 52.4477 42 53Z" fill="black"/>
<path d="M38 53C38 53.5523 37.5523 54 37 54C36.4477 54 36 53.5523 36 53C36 52.4477 36.4477 52 37 52C37.5523 52 38 52.4477 38 53Z" fill="black"/>
<path d="M34 53C34 53.5523 33.5523 54 33 54C32.4477 54 32 53.5523 32 53C32 52.4477 32.4477 52 33 52C33.5523 52 34 52.4477 34 53Z" fill="black"/>
<path d="M31 53C31 53.5523 30.5523 54 30 54C29.4477 54 29 53.5523 29 53C29 52.4477 29.4477 52 30 52C30.5523 52 31 52.4477 31 53Z" fill="black"/>
<path d="M27 53C27 53.5523 26.5523 54 26 54C25.4477 54 25 53.5523 25 53C25 52.4477 25.4477 52 26 52C26.5523 52 27 52.4477 27 53Z" fill="black"/>
<path d="M23 53C23 53.5523 22.5523 54 22 54C21.4477 54 21 53.5523 21 53C21 52.4477 21.4477 52 22 52C22.5523 52 23 52.4477 23 53Z" fill="black"/>
<path d="M19 53C19 53.5523 18.5523 54 18 54C17.4477 54 17 53.5523 17 53C17 52.4477 17.4477 52 18 52C18.5523 52 19 52.4477 19 53Z" fill="black"/>
<path d="M16 53C16 53.5523 15.5523 54 15 54C14.4477 54 14 53.5523 14 53C14 52.4477 14.4477 52 15 52C15.5523 52 16 52.4477 16 53Z" fill="black"/>
<path d="M12 53C12 53.5523 11.5523 54 11 54C10.4477 54 10 53.5523 10 53C10 52.4477 10.4477 52 11 52C11.5523 52 12 52.4477 12 53Z" fill="black"/>
<path d="M75 53C75 53.5523 74.5523 54 74 54C73.4477 54 73 53.5523 73 53C73 52.4477 73.4477 52 74 52C74.5523 52 75 52.4477 75 53Z" fill="black"/>
<path d="M71 53C71 53.5523 70.5523 54 70 54C69.4477 54 69 53.5523 69 53C69 52.4477 69.4477 52 70 52C70.5523 52 71 52.4477 71 53Z" fill="black"/>
<path d="M68 53C68 53.5523 67.5523 54 67 54C66.4477 54 66 53.5523 66 53C66 52.4477 66.4477 52 67 52C67.5523 52 68 52.4477 68 53Z" fill="black"/>
<path d="M64 53C64 53.5523 63.5523 54 63 54C62.4477 54 62 53.5523 62 53C62 52.4477 62.4477 52 63 52C63.5523 52 64 52.4477 64 53Z" fill="black"/>
<path d="M60 53C60 53.5523 59.5523 54 59 54C58.4477 54 58 53.5523 58 53C58 52.4477 58.4477 52 59 52C59.5523 52 60 52.4477 60 53Z" fill="black"/>
<path d="M56 53C56 53.5523 55.5523 54 55 54C54.4477 54 54 53.5523 54 53C54 52.4477 54.4477 52 55 52C55.5523 52 56 52.4477 56 53Z" fill="black"/>
<path d="M53 53C53 53.5523 52.5523 54 52 54C51.4477 54 51 53.5523 51 53C51 52.4477 51.4477 52 52 52C52.5523 52 53 52.4477 53 53Z" fill="black"/>
<path d="M49 53C49 53.5523 48.5523 54 48 54C47.4477 54 47 53.5523 47 53C47 52.4477 47.4477 52 48 52C48.5523 52 49 52.4477 49 53Z" fill="black"/>
<path d="M45 53C45 53.5523 44.5523 54 44 54C43.4477 54 43 53.5523 43 53C43 52.4477 43.4477 52 44 52C44.5523 52 45 52.4477 45 53Z" fill="black"/>
<path d="M41 53C41 53.5523 40.5523 54 40 54C39.4477 54 39 53.5523 39 53C39 52.4477 39.4477 52 40 52C40.5523 52 41 52.4477 41 53Z" fill="black"/>
<path d="M38 53C38 53.5523 37.5523 54 37 54C36.4477 54 36 53.5523 36 53C36 52.4477 36.4477 52 37 52C37.5523 52 38 52.4477 38 53Z" fill="black"/>
<path d="M34 53C34 53.5523 33.5523 54 33 54C32.4477 54 32 53.5523 32 53C32 52.4477 32.4477 52 33 52C33.5523 52 34 52.4477 34 53Z" fill="black"/>
<path d="M30 53C30 53.5523 29.5523 54 29 54C28.4477 54 28 53.5523 28 53C28 52.4477 28.4477 52 29 52C29.5523 52 30 52.4477 30 53Z" fill="black"/>
<path d="M26 53C26 53.5523 25.5523 54 25 54C24.4477 54 24 53.5523 24 53C24 52.4477 24.4477 52 25 52C25.5523 52 26 52.4477 26 53Z" fill="black"/>
<path d="M23 53C23 53.5523 22.5523 54 22 54C21.4477 54 21 53.5523 21 53C21 52.4477 21.4477 52 22 52C22.5523 52 23 52.4477 23 53Z" fill="black"/>
<path d="M19 53C19 53.5523 18.5523 54 18 54C17.4477 54 17 53.5523 17 53C17 52.4477 17.4477 52 18 52C18.5523 52 19 52.4477 19 53Z" fill="black"/>
<path d="M66 53C66 53.5523 65.5523 54 65 54C64.4477 54 64 53.5523 64 53C64 52.4477 64.4477 52 65 52C65.5523 52 66 52.4477 66 53Z" fill="black"/>
<path d="M62 53C62 53.5523 61.5523 54 61 54C60.4477 54 60 53.5523 60 53C60 52.4477 60.4477 52 61 52C61.5523 52 62 52.4477 62 53Z" fill="black"/>
<path d="M59 53C59 53.5523 58.5523 54 58 54C57.4477 54 57 53.5523 57 53C57 52.4477 57.4477 52 58 52C58.5523 52 59 52.4477 59 53Z" fill="black"/>
<path d="M55 53C55 53.5523 54.5523 54 54 54C53.4477 54 53 53.5523 53 53C53 52.4477 53.4477 52 54 52C54.5523 52 55 52.4477 55 53Z" fill="black"/>
<path d="M51 53C51 53.5523 50.5523 54 50 54C49.4477 54 49 53.5523 49 53C49 52.4477 49.4477 52 50 52C50.5523 52 51 52.4477 51 53Z" fill="black"/>
<path d="M47 53C47 53.5523 46.5523 54 46 54C45.4477 54 45 53.5523 45 53C45 52.4477 45.4477 52 46 52C46.5523 52 47 52.4477 47 53Z" fill="black"/>
<path d="M44 53C44 53.5523 43.5523 54 43 54C42.4477 54 42 53.5523 42 53C42 52.4477 42.4477 52 43 52C43.5523 52 44 52.4477 44 53Z" fill="black"/>
<path d="M40 53C40 53.5523 39.5523 54 39 54C38.4477 54 38 53.5523 38 53C38 52.4477 38.4477 52 39 52C39.5523 52 40 52.4477 40 53Z" fill="black"/>
<path d="M36 53C36 53.5523 35.5523 54 35 54C34.4477 54 34 53.5523 34 53C34 52.4477 34.4477 52 35 52C35.5523 52 36 52.4477 36 53Z" fill="black"/>
<path d="M32 53C32 53.5523 31.5523 54 31 54C30.4477 54 30 53.5523 30 53C30 52.4477 30.4477 52 31 52C31.5523 52 32 52.4477 32 53Z" fill="black"/>
<path d="M29 53C29 53.5523 28.5523 54 28 54C27.4477 54 27 53.5523 27 53C27 52.4477 27.4477 52 28 52C28.5523 52 29 52.4477 29 53Z" fill="black"/>
<path d="M25 53C25 53.5523 24.5523 54 24 54C23.4477 54 23 53.5523 23 53C23 52.4477 23.4477 52 24 52C24.5523 52 25 52.4477 25 53Z" fill="black"/>
<path d="M21 53C21 53.5523 20.5523 54 20 54C19.4477 54 19 53.5523 19 53C19 52.4477 19.4477 52 20 52C20.5523 52 21 52.4477 21 53Z" fill="black"/>
<path d="M17 53C17 53.5523 16.5523 54 16 54C15.4477 54 15 53.5523 15 53C15 52.4477 15.4477 52 16 52C16.5523 52 17 52.4477 17 53Z" fill="black"/>
<path d="M14 53C14 53.5523 13.5523 54 13 54C12.4477 54 12 53.5523 12 53C12 52.4477 12.4477 52 13 52C13.5523 52 14 52.4477 14 53Z" fill="black"/>
<path d="M10 53C10 53.5523 9.55228 54 9 54C8.44772 54 8 53.5523 8 53C8 52.4477 8.44772 52 9 52C9.55228 52 10 52.4477 10 53Z" fill="black"/>
<path d="M214 53C214 54.6569 212.657 56 211 56C209.343 56 208 54.6569 208 53C208 51.3431 209.343 50 211 50C212.657 50 214 51.3431 214 53Z" fill="black" fill-opacity="0.2"/>
<path d="M228 53C228 53.5523 227.552 54 227 54C226.448 54 226 53.5523 226 53C226 52.4477 226.448 52 227 52C227.552 52 228 52.4477 228 53Z" fill="black"/>
<path d="M232 53C232 53.5523 231.552 54 231 54C230.448 54 230 53.5523 230 53C230 52.4477 230.448 52 231 52C231.552 52 232 52.4477 232 53Z" fill="black"/>
<path d="M235 53C235 53.5523 234.552 54 234 54C233.448 54 233 53.5523 233 53C233 52.4477 233.448 52 234 52C234.552 52 235 52.4477 235 53Z" fill="black"/>
<path d="M239 53C239 53.5523 238.552 54 238 54C237.448 54 237 53.5523 237 53C237 52.4477 237.448 52 238 52C238.552 52 239 52.4477 239 53Z" fill="black"/>
<path d="M243 53C243 53.5523 242.552 54 242 54C241.448 54 241 53.5523 241 53C241 52.4477 241.448 52 242 52C242.552 52 243 52.4477 243 53Z" fill="black"/>
<path d="M247 53C247 53.5523 246.552 54 246 54C245.448 54 245 53.5523 245 53C245 52.4477 245.448 52 246 52C246.552 52 247 52.4477 247 53Z" fill="black"/>
<path d="M250 53C250 53.5523 249.552 54 249 54C248.448 54 248 53.5523 248 53C248 52.4477 248.448 52 249 52C249.552 52 250 52.4477 250 53Z" fill="black"/>
<path d="M254 53C254 53.5523 253.552 54 253 54C252.448 54 252 53.5523 252 53C252 52.4477 252.448 52 253 52C253.552 52 254 52.4477 254 53Z" fill="black"/>
<path d="M258 53C258 53.5523 257.552 54 257 54C256.448 54 256 53.5523 256 53C256 52.4477 256.448 52 257 52C257.552 52 258 52.4477 258 53Z" fill="black"/>
<path d="M262 53C262 53.5523 261.552 54 261 54C260.448 54 260 53.5523 260 53C260 52.4477 260.448 52 261 52C261.552 52 262 52.4477 262 53Z" fill="black"/>
<path d="M265 53C265 53.5523 264.552 54 264 54C263.448 54 263 53.5523 263 53C263 52.4477 263.448 52 264 52C264.552 52 265 52.4477 265 53Z" fill="black"/>
<path d="M269 53C269 53.5523 268.552 54 268 54C267.448 54 267 53.5523 267 53C267 52.4477 267.448 52 268 52C268.552 52 269 52.4477 269 53Z" fill="black"/>
<path d="M273 53C273 53.5523 272.552 54 272 54C271.448 54 271 53.5523 271 53C271 52.4477 271.448 52 272 52C272.552 52 273 52.4477 273 53Z" fill="black"/>
<path d="M277 53C277 53.5523 276.552 54 276 54C275.448 54 275 53.5523 275 53C275 52.4477 275.448 52 276 52C276.552 52 277 52.4477 277 53Z" fill="black"/>
<path d="M280 53C280 53.5523 279.552 54 279 54C278.448 54 278 53.5523 278 53C278 52.4477 278.448 52 279 52C279.552 52 280 52.4477 280 53Z" fill="black"/>
<path d="M284 53C284 53.5523 283.552 54 283 54C282.448 54 282 53.5523 282 53C282 52.4477 282.448 52 283 52C283.552 52 284 52.4477 284 53Z" fill="black"/>
<path d="M237 53C237 53.5523 236.552 54 236 54C235.448 54 235 53.5523 235 53C235 52.4477 235.448 52 236 52C236.552 52 237 52.4477 237 53Z" fill="black"/>
<path d="M241 53C241 53.5523 240.552 54 240 54C239.448 54 239 53.5523 239 53C239 52.4477 239.448 52 240 52C240.552 52 241 52.4477 241 53Z" fill="black"/>
<path d="M244 53C244 53.5523 243.552 54 243 54C242.448 54 242 53.5523 242 53C242 52.4477 242.448 52 243 52C243.552 52 244 52.4477 244 53Z" fill="black"/>
<path d="M248 53C248 53.5523 247.552 54 247 54C246.448 54 246 53.5523 246 53C246 52.4477 246.448 52 247 52C247.552 52 248 52.4477 248 53Z" fill="black"/>
<path d="M252 53C252 53.5523 251.552 54 251 54C250.448 54 250 53.5523 250 53C250 52.4477 250.448 52 251 52C251.552 52 252 52.4477 252 53Z" fill="black"/>
<path d="M256 53C256 53.5523 255.552 54 255 54C254.448 54 254 53.5523 254 53C254 52.4477 254.448 52 255 52C255.552 52 256 52.4477 256 53Z" fill="black"/>
<path d="M259 53C259 53.5523 258.552 54 258 54C257.448 54 257 53.5523 257 53C257 52.4477 257.448 52 258 52C258.552 52 259 52.4477 259 53Z" fill="black"/>
<path d="M263 53C263 53.5523 262.552 54 262 54C261.448 54 261 53.5523 261 53C261 52.4477 261.448 52 262 52C262.552 52 263 52.4477 263 53Z" fill="black"/>
<path d="M267 53C267 53.5523 266.552 54 266 54C265.448 54 265 53.5523 265 53C265 52.4477 265.448 52 266 52C266.552 52 267 52.4477 267 53Z" fill="black"/>
<path d="M271 53C271 53.5523 270.552 54 270 54C269.448 54 269 53.5523 269 53C269 52.4477 269.448 52 270 52C270.552 52 271 52.4477 271 53Z" fill="black"/>
<path d="M274 53C274 53.5523 273.552 54 273 54C272.448 54 272 53.5523 272 53C272 52.4477 272.448 52 273 52C273.552 52 274 52.4477 274 53Z" fill="black"/>
<path d="M278 53C278 53.5523 277.552 54 277 54C276.448 54 276 53.5523 276 53C276 52.4477 276.448 52 277 52C277.552 52 278 52.4477 278 53Z" fill="black"/>
<path d="M282 53C282 53.5523 281.552 54 281 54C280.448 54 280 53.5523 280 53C280 52.4477 280.448 52 281 52C281.552 52 282 52.4477 282 53Z" fill="black"/>
<path d="M286 53C286 53.5523 285.552 54 285 54C284.448 54 284 53.5523 284 53C284 52.4477 284.448 52 285 52C285.552 52 286 52.4477 286 53Z" fill="black"/>
<path d="M289 53C289 53.5523 288.552 54 288 54C287.448 54 287 53.5523 287 53C287 52.4477 287.448 52 288 52C288.552 52 289 52.4477 289 53Z" fill="black"/>
<path d="M293 53C293 53.5523 292.552 54 292 54C291.448 54 291 53.5523 291 53C291 52.4477 291.448 52 292 52C292.552 52 293 52.4477 293 53Z" fill="black"/>
<path d="M230 53C230 53.5523 229.552 54 229 54C228.448 54 228 53.5523 228 53C228 52.4477 228.448 52 229 52C229.552 52 230 52.4477 230 53Z" fill="black"/>
<path d="M234 53C234 53.5523 233.552 54 233 54C232.448 54 232 53.5523 232 53C232 52.4477 232.448 52 233 52C233.552 52 234 52.4477 234 53Z" fill="black"/>
<path d="M237 53C237 53.5523 236.552 54 236 54C235.448 54 235 53.5523 235 53C235 52.4477 235.448 52 236 52C236.552 52 237 52.4477 237 53Z" fill="black"/>
<path d="M241 53C241 53.5523 240.552 54 240 54C239.448 54 239 53.5523 239 53C239 52.4477 239.448 52 240 52C240.552 52 241 52.4477 241 53Z" fill="black"/>
<path d="M245 53C245 53.5523 244.552 54 244 54C243.448 54 243 53.5523 243 53C243 52.4477 243.448 52 244 52C244.552 52 245 52.4477 245 53Z" fill="black"/>
<path d="M249 53C249 53.5523 248.552 54 248 54C247.448 54 247 53.5523 247 53C247 52.4477 247.448 52 248 52C248.552 52 249 52.4477 249 53Z" fill="black"/>
<path d="M252 53C252 53.5523 251.552 54 251 54C250.448 54 250 53.5523 250 53C250 52.4477 250.448 52 251 52C251.552 52 252 52.4477 252 53Z" fill="black"/>
<path d="M256 53C256 53.5523 255.552 54 255 54C254.448 54 254 53.5523 254 53C254 52.4477 254.448 52 255 52C255.552 52 256 52.4477 256 53Z" fill="black"/>
<path d="M260 53C260 53.5523 259.552 54 259 54C258.448 54 258 53.5523 258 53C258 52.4477 258.448 52 259 52C259.552 52 260 52.4477 260 53Z" fill="black"/>
<path d="M264 53C264 53.5523 263.552 54 263 54C262.448 54 262 53.5523 262 53C262 52.4477 262.448 52 263 52C263.552 52 264 52.4477 264 53Z" fill="black"/>
<path d="M267 53C267 53.5523 266.552 54 266 54C265.448 54 265 53.5523 265 53C265 52.4477 265.448 52 266 52C266.552 52 267 52.4477 267 53Z" fill="black"/>
<path d="M271 53C271 53.5523 270.552 54 270 54C269.448 54 269 53.5523 269 53C269 52.4477 269.448 52 270 52C270.552 52 271 52.4477 271 53Z" fill="black"/>
<path d="M275 53C275 53.5523 274.552 54 274 54C273.448 54 273 53.5523 273 53C273 52.4477 273.448 52 274 52C274.552 52 275 52.4477 275 53Z" fill="black"/>
<path d="M279 53C279 53.5523 278.552 54 278 54C277.448 54 277 53.5523 277 53C277 52.4477 277.448 52 278 52C278.552 52 279 52.4477 279 53Z" fill="black"/>
<path d="M282 53C282 53.5523 281.552 54 281 54C280.448 54 280 53.5523 280 53C280 52.4477 280.448 52 281 52C281.552 52 282 52.4477 282 53Z" fill="black"/>
<path d="M286 53C286 53.5523 285.552 54 285 54C284.448 54 284 53.5523 284 53C284 52.4477 284.448 52 285 52C285.552 52 286 52.4477 286 53Z" fill="black"/>
<path d="M239 53C239 53.5523 238.552 54 238 54C237.448 54 237 53.5523 237 53C237 52.4477 237.448 52 238 52C238.552 52 239 52.4477 239 53Z" fill="black"/>
<path d="M243 53C243 53.5523 242.552 54 242 54C241.448 54 241 53.5523 241 53C241 52.4477 241.448 52 242 52C242.552 52 243 52.4477 243 53Z" fill="black"/>
<path d="M246 53C246 53.5523 245.552 54 245 54C244.448 54 244 53.5523 244 53C244 52.4477 244.448 52 245 52C245.552 52 246 52.4477 246 53Z" fill="black"/>
<path d="M250 53C250 53.5523 249.552 54 249 54C248.448 54 248 53.5523 248 53C248 52.4477 248.448 52 249 52C249.552 52 250 52.4477 250 53Z" fill="black"/>
<path d="M254 53C254 53.5523 253.552 54 253 54C252.448 54 252 53.5523 252 53C252 52.4477 252.448 52 253 52C253.552 52 254 52.4477 254 53Z" fill="black"/>
<path d="M258 53C258 53.5523 257.552 54 257 54C256.448 54 256 53.5523 256 53C256 52.4477 256.448 52 257 52C257.552 52 258 52.4477 258 53Z" fill="black"/>
<path d="M261 53C261 53.5523 260.552 54 260 54C259.448 54 259 53.5523 259 53C259 52.4477 259.448 52 260 52C260.552 52 261 52.4477 261 53Z" fill="black"/>
<path d="M265 53C265 53.5523 264.552 54 264 54C263.448 54 263 53.5523 263 53C263 52.4477 263.448 52 264 52C264.552 52 265 52.4477 265 53Z" fill="black"/>
<path d="M269 53C269 53.5523 268.552 54 268 54C267.448 54 267 53.5523 267 53C267 52.4477 267.448 52 268 52C268.552 52 269 52.4477 269 53Z" fill="black"/>
<path d="M273 53C273 53.5523 272.552 54 272 54C271.448 54 271 53.5523 271 53C271 52.4477 271.448 52 272 52C272.552 52 273 52.4477 273 53Z" fill="black"/>
<path d="M276 53C276 53.5523 275.552 54 275 54C274.448 54 274 53.5523 274 53C274 52.4477 274.448 52 275 52C275.552 52 276 52.4477 276 53Z" fill="black"/>
<path d="M280 53C280 53.5523 279.552 54 279 54C278.448 54 278 53.5523 278 53C278 52.4477 278.448 52 279 52C279.552 52 280 52.4477 280 53Z" fill="black"/>
<path d="M284 53C284 53.5523 283.552 54 283 54C282.448 54 282 53.5523 282 53C282 52.4477 282.448 52 283 52C283.552 52 284 52.4477 284 53Z" fill="black"/>
<path d="M288 53C288 53.5523 287.552 54 287 54C286.448 54 286 53.5523 286 53C286 52.4477 286.448 52 287 52C287.552 52 288 52.4477 288 53Z" fill="black"/>
<path d="M291 53C291 53.5523 290.552 54 290 54C289.448 54 289 53.5523 289 53C289 52.4477 289.448 52 290 52C290.552 52 291 52.4477 291 53Z" fill="black"/>
<path d="M295 53C295 53.5523 294.552 54 294 54C293.448 54 293 53.5523 293 53C293 52.4477 293.448 52 294 52C294.552 52 295 52.4477 295 53Z" fill="black"/>
<path d="M233 53C233 53.5523 232.552 54 232 54C231.448 54 231 53.5523 231 53C231 52.4477 231.448 52 232 52C232.552 52 233 52.4477 233 53Z" fill="black"/>
<path d="M237 53C237 53.5523 236.552 54 236 54C235.448 54 235 53.5523 235 53C235 52.4477 235.448 52 236 52C236.552 52 237 52.4477 237 53Z" fill="black"/>
<path d="M240 53C240 53.5523 239.552 54 239 54C238.448 54 238 53.5523 238 53C238 52.4477 238.448 52 239 52C239.552 52 240 52.4477 240 53Z" fill="black"/>
<path d="M244 53C244 53.5523 243.552 54 243 54C242.448 54 242 53.5523 242 53C242 52.4477 242.448 52 243 52C243.552 52 244 52.4477 244 53Z" fill="black"/>
<path d="M248 53C248 53.5523 247.552 54 247 54C246.448 54 246 53.5523 246 53C246 52.4477 246.448 52 247 52C247.552 52 248 52.4477 248 53Z" fill="black"/>
<path d="M252 53C252 53.5523 251.552 54 251 54C250.448 54 250 53.5523 250 53C250 52.4477 250.448 52 251 52C251.552 52 252 52.4477 252 53Z" fill="black"/>
<path d="M255 53C255 53.5523 254.552 54 254 54C253.448 54 253 53.5523 253 53C253 52.4477 253.448 52 254 52C254.552 52 255 52.4477 255 53Z" fill="black"/>
<path d="M259 53C259 53.5523 258.552 54 258 54C257.448 54 257 53.5523 257 53C257 52.4477 257.448 52 258 52C258.552 52 259 52.4477 259 53Z" fill="black"/>
<path d="M263 53C263 53.5523 262.552 54 262 54C261.448 54 261 53.5523 261 53C261 52.4477 261.448 52 262 52C262.552 52 263 52.4477 263 53Z" fill="black"/>
<path d="M267 53C267 53.5523 266.552 54 266 54C265.448 54 265 53.5523 265 53C265 52.4477 265.448 52 266 52C266.552 52 267 52.4477 267 53Z" fill="black"/>
<path d="M270 53C270 53.5523 269.552 54 269 54C268.448 54 268 53.5523 268 53C268 52.4477 268.448 52 269 52C269.552 52 270 52.4477 270 53Z" fill="black"/>
<path d="M274 53C274 53.5523 273.552 54 273 54C272.448 54 272 53.5523 272 53C272 52.4477 272.448 52 273 52C273.552 52 274 52.4477 274 53Z" fill="black"/>
<path d="M278 53C278 53.5523 277.552 54 277 54C276.448 54 276 53.5523 276 53C276 52.4477 276.448 52 277 52C277.552 52 278 52.4477 278 53Z" fill="black"/>
<path d="M282 53C282 53.5523 281.552 54 281 54C280.448 54 280 53.5523 280 53C280 52.4477 280.448 52 281 52C281.552 52 282 52.4477 282 53Z" fill="black"/>
<path d="M285 53C285 53.5523 284.552 54 284 54C283.448 54 283 53.5523 283 53C283 52.4477 283.448 52 284 52C284.552 52 285 52.4477 285 53Z" fill="black"/>
<path d="M289 53C289 53.5523 288.552 54 288 54C287.448 54 287 53.5523 287 53C287 52.4477 287.448 52 288 52C288.552 52 289 52.4477 289 53Z" fill="black"/>
<path d="M242 53C242 53.5523 241.552 54 241 54C240.448 54 240 53.5523 240 53C240 52.4477 240.448 52 241 52C241.552 52 242 52.4477 242 53Z" fill="black"/>
<path d="M246 53C246 53.5523 245.552 54 245 54C244.448 54 244 53.5523 244 53C244 52.4477 244.448 52 245 52C245.552 52 246 52.4477 246 53Z" fill="black"/>
<path d="M249 53C249 53.5523 248.552 54 248 54C247.448 54 247 53.5523 247 53C247 52.4477 247.448 52 248 52C248.552 52 249 52.4477 249 53Z" fill="black"/>
<path d="M253 53C253 53.5523 252.552 54 252 54C251.448 54 251 53.5523 251 53C251 52.4477 251.448 52 252 52C252.552 52 253 52.4477 253 53Z" fill="black"/>
<path d="M257 53C257 53.5523 256.552 54 256 54C255.448 54 255 53.5523 255 53C255 52.4477 255.448 52 256 52C256.552 52 257 52.4477 257 53Z" fill="black"/>
<path d="M261 53C261 53.5523 260.552 54 260 54C259.448 54 259 53.5523 259 53C259 52.4477 259.448 52 260 52C260.552 52 261 52.4477 261 53Z" fill="black"/>
<path d="M264 53C264 53.5523 263.552 54 263 54C262.448 54 262 53.5523 262 53C262 52.4477 262.448 52 263 52C263.552 52 264 52.4477 264 53Z" fill="black"/>
<path d="M268 53C268 53.5523 267.552 54 267 54C266.448 54 266 53.5523 266 53C266 52.4477 266.448 52 267 52C267.552 52 268 52.4477 268 53Z" fill="black"/>
<path d="M272 53C272 53.5523 271.552 54 271 54C270.448 54 270 53.5523 270 53C270 52.4477 270.448 52 271 52C271.552 52 272 52.4477 272 53Z" fill="black"/>
<path d="M276 53C276 53.5523 275.552 54 275 54C274.448 54 274 53.5523 274 53C274 52.4477 274.448 52 275 52C275.552 52 276 52.4477 276 53Z" fill="black"/>
<path d="M279 53C279 53.5523 278.552 54 278 54C277.448 54 277 53.5523 277 53C277 52.4477 277.448 52 278 52C278.552 52 279 52.4477 279 53Z" fill="black"/>
<path d="M283 53C283 53.5523 282.552 54 282 54C281.448 54 281 53.5523 281 53C281 52.4477 281.448 52 282 52C282.552 52 283 52.4477 283 53Z" fill="black"/>
<path d="M287 53C287 53.5523 286.552 54 286 54C285.448 54 285 53.5523 285 53C285 52.4477 285.448 52 286 52C286.552 52 287 52.4477 287 53Z" fill="black"/>
<path d="M291 53C291 53.5523 290.552 54 290 54C289.448 54 289 53.5523 289 53C289 52.4477 289.448 52 290 52C290.552 52 291 52.4477 291 53Z" fill="black"/>
<path d="M294 53C294 53.5523 293.552 54 293 54C292.448 54 292 53.5523 292 53C292 52.4477 292.448 52 293 52C293.552 52 294 52.4477 294 53Z" fill="black"/>
<path d="M298 53C298 53.5523 297.552 54 297 54C296.448 54 296 53.5523 296 53C296 52.4477 296.448 52 297 52C297.552 52 298 52.4477 298 53Z" fill="black"/>
<path d="M235 53C235 53.5523 234.552 54 234 54C233.448 54 233 53.5523 233 53C233 52.4477 233.448 52 234 52C234.552 52 235 52.4477 235 53Z" fill="black"/>
<path d="M239 53C239 53.5523 238.552 54 238 54C237.448 54 237 53.5523 237 53C237 52.4477 237.448 52 238 52C238.552 52 239 52.4477 239 53Z" fill="black"/>
<path d="M242 53C242 53.5523 241.552 54 241 54C240.448 54 240 53.5523 240 53C240 52.4477 240.448 52 241 52C241.552 52 242 52.4477 242 53Z" fill="black"/>
<path d="M246 53C246 53.5523 245.552 54 245 54C244.448 54 244 53.5523 244 53C244 52.4477 244.448 52 245 52C245.552 52 246 52.4477 246 53Z" fill="black"/>
<path d="M250 53C250 53.5523 249.552 54 249 54C248.448 54 248 53.5523 248 53C248 52.4477 248.448 52 249 52C249.552 52 250 52.4477 250 53Z" fill="black"/>
<path d="M254 53C254 53.5523 253.552 54 253 54C252.448 54 252 53.5523 252 53C252 52.4477 252.448 52 253 52C253.552 52 254 52.4477 254 53Z" fill="black"/>
<path d="M257 53C257 53.5523 256.552 54 256 54C255.448 54 255 53.5523 255 53C255 52.4477 255.448 52 256 52C256.552 52 257 52.4477 257 53Z" fill="black"/>
<path d="M261 53C261 53.5523 260.552 54 260 54C259.448 54 259 53.5523 259 53C259 52.4477 259.448 52 260 52C260.552 52 261 52.4477 261 53Z" fill="black"/>
<path d="M265 53C265 53.5523 264.552 54 264 54C263.448 54 263 53.5523 263 53C263 52.4477 263.448 52 264 52C264.552 52 265 52.4477 265 53Z" fill="black"/>
<path d="M269 53C269 53.5523 268.552 54 268 54C267.448 54 267 53.5523 267 53C267 52.4477 267.448 52 268 52C268.552 52 269 52.4477 269 53Z" fill="black"/>
<path d="M272 53C272 53.5523 271.552 54 271 54C270.448 54 270 53.5523 270 53C270 52.4477 270.448 52 271 52C271.552 52 272 52.4477 272 53Z" fill="black"/>
<path d="M276 53C276 53.5523 275.552 54 275 54C274.448 54 274 53.5523 274 53C274 52.4477 274.448 52 275 52C275.552 52 276 52.4477 276 53Z" fill="black"/>
<path d="M280 53C280 53.5523 279.552 54 279 54C278.448 54 278 53.5523 278 53C278 52.4477 278.448 52 279 52C279.552 52 280 52.4477 280 53Z" fill="black"/>
<path d="M284 53C284 53.5523 283.552 54 283 54C282.448 54 282 53.5523 282 53C282 52.4477 282.448 52 283 52C283.552 52 284 52.4477 284 53Z" fill="black"/>
<path d="M287 53C287 53.5523 286.552 54 286 54C285.448 54 285 53.5523 285 53C285 52.4477 285.448 52 286 52C286.552 52 287 52.4477 287 53Z" fill="black"/>
<path d="M291 53C291 53.5523 290.552 54 290 54C289.448 54 289 53.5523 289 53C289 52.4477 289.448 52 290 52C290.552 52 291 52.4477 291 53Z" fill="black"/>
<path d="M244 53C244 53.5523 243.552 54 243 54C242.448 54 242 53.5523 242 53C242 52.4477 242.448 52 243 52C243.552 52 244 52.4477 244 53Z" fill="black"/>
<path d="M248 53C248 53.5523 247.552 54 247 54C246.448 54 246 53.5523 246 53C246 52.4477 246.448 52 247 52C247.552 52 248 52.4477 248 53Z" fill="black"/>
<path d="M251 53C251 53.5523 250.552 54 250 54C249.448 54 249 53.5523 249 53C249 52.4477 249.448 52 250 52C250.552 52 251 52.4477 251 53Z" fill="black"/>
<path d="M255 53C255 53.5523 254.552 54 254 54C253.448 54 253 53.5523 253 53C253 52.4477 253.448 52 254 52C254.552 52 255 52.4477 255 53Z" fill="black"/>
<path d="M259 53C259 53.5523 258.552 54 258 54C257.448 54 257 53.5523 257 53C257 52.4477 257.448 52 258 52C258.552 52 259 52.4477 259 53Z" fill="black"/>
<path d="M263 53C263 53.5523 262.552 54 262 54C261.448 54 261 53.5523 261 53C261 52.4477 261.448 52 262 52C262.552 52 263 52.4477 263 53Z" fill="black"/>
<path d="M266 53C266 53.5523 265.552 54 265 54C264.448 54 264 53.5523 264 53C264 52.4477 264.448 52 265 52C265.552 52 266 52.4477 266 53Z" fill="black"/>
<path d="M270 53C270 53.5523 269.552 54 269 54C268.448 54 268 53.5523 268 53C268 52.4477 268.448 52 269 52C269.552 52 270 52.4477 270 53Z" fill="black"/>
<path d="M274 53C274 53.5523 273.552 54 273 54C272.448 54 272 53.5523 272 53C272 52.4477 272.448 52 273 52C273.552 52 274 52.4477 274 53Z" fill="black"/>
<path d="M278 53C278 53.5523 277.552 54 277 54C276.448 54 276 53.5523 276 53C276 52.4477 276.448 52 277 52C277.552 52 278 52.4477 278 53Z" fill="black"/>
<path d="M281 53C281 53.5523 280.552 54 280 54C279.448 54 279 53.5523 279 53C279 52.4477 279.448 52 280 52C280.552 52 281 52.4477 281 53Z" fill="black"/>
<path d="M285 53C285 53.5523 284.552 54 284 54C283.448 54 283 53.5523 283 53C283 52.4477 283.448 52 284 52C284.552 52 285 52.4477 285 53Z" fill="black"/>
<path d="M289 53C289 53.5523 288.552 54 288 54C287.448 54 287 53.5523 287 53C287 52.4477 287.448 52 288 52C288.552 52 289 52.4477 289 53Z" fill="black"/>
<path d="M293 53C293 53.5523 292.552 54 292 54C291.448 54 291 53.5523 291 53C291 52.4477 291.448 52 292 52C292.552 52 293 52.4477 293 53Z" fill="black"/>
<path d="M296 53C296 53.5523 295.552 54 295 54C294.448 54 294 53.5523 294 53C294 52.4477 294.448 52 295 52C295.552 52 296 52.4477 296 53Z" fill="black"/>
<path d="M300 53C300 53.5523 299.552 54 299 54C298.448 54 298 53.5523 298 53C298 52.4477 298.448 52 299 52C299.552 52 300 52.4477 300 53Z" fill="black"/>
<path d="M220 53C220 53.5523 219.552 54 219 54C218.448 54 218 53.5523 218 53C218 52.4477 218.448 52 219 52C219.552 52 220 52.4477 220 53Z" fill="black"/>
<path d="M224 53C224 53.5523 223.552 54 223 54C222.448 54 222 53.5523 222 53C222 52.4477 222.448 52 223 52C223.552 52 224 52.4477 224 53Z" fill="black"/>
<path d="M227 53C227 53.5523 226.552 54 226 54C225.448 54 225 53.5523 225 53C225 52.4477 225.448 52 226 52C226.552 52 227 52.4477 227 53Z" fill="black"/>
<path d="M231 53C231 53.5523 230.552 54 230 54C229.448 54 229 53.5523 229 53C229 52.4477 229.448 52 230 52C230.552 52 231 52.4477 231 53Z" fill="black"/>
<path d="M235 53C235 53.5523 234.552 54 234 54C233.448 54 233 53.5523 233 53C233 52.4477 233.448 52 234 52C234.552 52 235 52.4477 235 53Z" fill="black"/>
<path d="M239 53C239 53.5523 238.552 54 238 54C237.448 54 237 53.5523 237 53C237 52.4477 237.448 52 238 52C238.552 52 239 52.4477 239 53Z" fill="black"/>
<path d="M242 53C242 53.5523 241.552 54 241 54C240.448 54 240 53.5523 240 53C240 52.4477 240.448 52 241 52C241.552 52 242 52.4477 242 53Z" fill="black"/>
<path d="M246 53C246 53.5523 245.552 54 245 54C244.448 54 244 53.5523 244 53C244 52.4477 244.448 52 245 52C245.552 52 246 52.4477 246 53Z" fill="black"/>
<path d="M250 53C250 53.5523 249.552 54 249 54C248.448 54 248 53.5523 248 53C248 52.4477 248.448 52 249 52C249.552 52 250 52.4477 250 53Z" fill="black"/>
<path d="M254 53C254 53.5523 253.552 54 253 54C252.448 54 252 53.5523 252 53C252 52.4477 252.448 52 253 52C253.552 52 254 52.4477 254 53Z" fill="black"/>
<path d="M257 53C257 53.5523 256.552 54 256 54C255.448 54 255 53.5523 255 53C255 52.4477 255.448 52 256 52C256.552 52 257 52.4477 257 53Z" fill="black"/>
<path d="M261 53C261 53.5523 260.552 54 260 54C259.448 54 259 53.5523 259 53C259 52.4477 259.448 52 260 52C260.552 52 261 52.4477 261 53Z" fill="black"/>
<path d="M265 53C265 53.5523 264.552 54 264 54C263.448 54 263 53.5523 263 53C263 52.4477 263.448 52 264 52C264.552 52 265 52.4477 265 53Z" fill="black"/>
<path d="M269 53C269 53.5523 268.552 54 268 54C267.448 54 267 53.5523 267 53C267 52.4477 267.448 52 268 52C268.552 52 269 52.4477 269 53Z" fill="black"/>
<path d="M272 53C272 53.5523 271.552 54 271 54C270.448 54 270 53.5523 270 53C270 52.4477 270.448 52 271 52C271.552 52 272 52.4477 272 53Z" fill="black"/>
<path d="M276 53C276 53.5523 275.552 54 275 54C274.448 54 274 53.5523 274 53C274 52.4477 274.448 52 275 52C275.552 52 276 52.4477 276 53Z" fill="black"/>
<path d="M229 53C229 53.5523 228.552 54 228 54C227.448 54 227 53.5523 227 53C227 52.4477 227.448 52 228 52C228.552 52 229 52.4477 229 53Z" fill="black"/>
<path d="M233 53C233 53.5523 232.552 54 232 54C231.448 54 231 53.5523 231 53C231 52.4477 231.448 52 232 52C232.552 52 233 52.4477 233 53Z" fill="black"/>
<path d="M236 53C236 53.5523 235.552 54 235 54C234.448 54 234 53.5523 234 53C234 52.4477 234.448 52 235 52C235.552 52 236 52.4477 236 53Z" fill="black"/>
<path d="M240 53C240 53.5523 239.552 54 239 54C238.448 54 238 53.5523 238 53C238 52.4477 238.448 52 239 52C239.552 52 240 52.4477 240 53Z" fill="black"/>
<path d="M244 53C244 53.5523 243.552 54 243 54C242.448 54 242 53.5523 242 53C242 52.4477 242.448 52 243 52C243.552 52 244 52.4477 244 53Z" fill="black"/>
<path d="M248 53C248 53.5523 247.552 54 247 54C246.448 54 246 53.5523 246 53C246 52.4477 246.448 52 247 52C247.552 52 248 52.4477 248 53Z" fill="black"/>
<path d="M251 53C251 53.5523 250.552 54 250 54C249.448 54 249 53.5523 249 53C249 52.4477 249.448 52 250 52C250.552 52 251 52.4477 251 53Z" fill="black"/>
<path d="M255 53C255 53.5523 254.552 54 254 54C253.448 54 253 53.5523 253 53C253 52.4477 253.448 52 254 52C254.552 52 255 52.4477 255 53Z" fill="black"/>
<path d="M259 53C259 53.5523 258.552 54 258 54C257.448 54 257 53.5523 257 53C257 52.4477 257.448 52 258 52C258.552 52 259 52.4477 259 53Z" fill="black"/>
<path d="M263 53C263 53.5523 262.552 54 262 54C261.448 54 261 53.5523 261 53C261 52.4477 261.448 52 262 52C262.552 52 263 52.4477 263 53Z" fill="black"/>
<path d="M266 53C266 53.5523 265.552 54 265 54C264.448 54 264 53.5523 264 53C264 52.4477 264.448 52 265 52C265.552 52 266 52.4477 266 53Z" fill="black"/>
<path d="M270 53C270 53.5523 269.552 54 269 54C268.448 54 268 53.5523 268 53C268 52.4477 268.448 52 269 52C269.552 52 270 52.4477 270 53Z" fill="black"/>
<path d="M274 53C274 53.5523 273.552 54 273 54C272.448 54 272 53.5523 272 53C272 52.4477 272.448 52 273 52C273.552 52 274 52.4477 274 53Z" fill="black"/>
<path d="M278 53C278 53.5523 277.552 54 277 54C276.448 54 276 53.5523 276 53C276 52.4477 276.448 52 277 52C277.552 52 278 52.4477 278 53Z" fill="black"/>
<path d="M281 53C281 53.5523 280.552 54 280 54C279.448 54 279 53.5523 279 53C279 52.4477 279.448 52 280 52C280.552 52 281 52.4477 281 53Z" fill="black"/>
<path d="M285 53C285 53.5523 284.552 54 284 54C283.448 54 283 53.5523 283 53C283 52.4477 283.448 52 284 52C284.552 52 285 52.4477 285 53Z" fill="black"/>
<path d="M222 53C222 53.5523 221.552 54 221 54C220.448 54 220 53.5523 220 53C220 52.4477 220.448 52 221 52C221.552 52 222 52.4477 222 53Z" fill="black"/>
<path d="M226 53C226 53.5523 225.552 54 225 54C224.448 54 224 53.5523 224 53C224 52.4477 224.448 52 225 52C225.552 52 226 52.4477 226 53Z" fill="black"/>
<path d="M229 53C229 53.5523 228.552 54 228 54C227.448 54 227 53.5523 227 53C227 52.4477 227.448 52 228 52C228.552 52 229 52.4477 229 53Z" fill="black"/>
<path d="M233 53C233 53.5523 232.552 54 232 54C231.448 54 231 53.5523 231 53C231 52.4477 231.448 52 232 52C232.552 52 233 52.4477 233 53Z" fill="black"/>
<path d="M237 53C237 53.5523 236.552 54 236 54C235.448 54 235 53.5523 235 53C235 52.4477 235.448 52 236 52C236.552 52 237 52.4477 237 53Z" fill="black"/>
<path d="M241 53C241 53.5523 240.552 54 240 54C239.448 54 239 53.5523 239 53C239 52.4477 239.448 52 240 52C240.552 52 241 52.4477 241 53Z" fill="black"/>
<path d="M244 53C244 53.5523 243.552 54 243 54C242.448 54 242 53.5523 242 53C242 52.4477 242.448 52 243 52C243.552 52 244 52.4477 244 53Z" fill="black"/>
<path d="M248 53C248 53.5523 247.552 54 247 54C246.448 54 246 53.5523 246 53C246 52.4477 246.448 52 247 52C247.552 52 248 52.4477 248 53Z" fill="black"/>
<path d="M252 53C252 53.5523 251.552 54 251 54C250.448 54 250 53.5523 250 53C250 52.4477 250.448 52 251 52C251.552 52 252 52.4477 252 53Z" fill="black"/>
<path d="M256 53C256 53.5523 255.552 54 255 54C254.448 54 254 53.5523 254 53C254 52.4477 254.448 52 255 52C255.552 52 256 52.4477 256 53Z" fill="black"/>
<path d="M259 53C259 53.5523 258.552 54 258 54C257.448 54 257 53.5523 257 53C257 52.4477 257.448 52 258 52C258.552 52 259 52.4477 259 53Z" fill="black"/>
<path d="M263 53C263 53.5523 262.552 54 262 54C261.448 54 261 53.5523 261 53C261 52.4477 261.448 52 262 52C262.552 52 263 52.4477 263 53Z" fill="black"/>
<path d="M267 53C267 53.5523 266.552 54 266 54C265.448 54 265 53.5523 265 53C265 52.4477 265.448 52 266 52C266.552 52 267 52.4477 267 53Z" fill="black"/>
<path d="M271 53C271 53.5523 270.552 54 270 54C269.448 54 269 53.5523 269 53C269 52.4477 269.448 52 270 52C270.552 52 271 52.4477 271 53Z" fill="black"/>
<path d="M274 53C274 53.5523 273.552 54 273 54C272.448 54 272 53.5523 272 53C272 52.4477 272.448 52 273 52C273.552 52 274 52.4477 274 53Z" fill="black"/>
<path d="M278 53C278 53.5523 277.552 54 277 54C276.448 54 276 53.5523 276 53C276 52.4477 276.448 52 277 52C277.552 52 278 52.4477 278 53Z" fill="black"/>
<path d="M231 53C231 53.5523 230.552 54 230 54C229.448 54 229 53.5523 229 53C229 52.4477 229.448 52 230 52C230.552 52 231 52.4477 231 53Z" fill="black"/>
<path d="M235 53C235 53.5523 234.552 54 234 54C233.448 54 233 53.5523 233 53C233 52.4477 233.448 52 234 52C234.552 52 235 52.4477 235 53Z" fill="black"/>
<path d="M238 53C238 53.5523 237.552 54 237 54C236.448 54 236 53.5523 236 53C236 52.4477 236.448 52 237 52C237.552 52 238 52.4477 238 53Z" fill="black"/>
<path d="M242 53C242 53.5523 241.552 54 241 54C240.448 54 240 53.5523 240 53C240 52.4477 240.448 52 241 52C241.552 52 242 52.4477 242 53Z" fill="black"/>
<path d="M246 53C246 53.5523 245.552 54 245 54C244.448 54 244 53.5523 244 53C244 52.4477 244.448 52 245 52C245.552 52 246 52.4477 246 53Z" fill="black"/>
<path d="M250 53C250 53.5523 249.552 54 249 54C248.448 54 248 53.5523 248 53C248 52.4477 248.448 52 249 52C249.552 52 250 52.4477 250 53Z" fill="black"/>
<path d="M253 53C253 53.5523 252.552 54 252 54C251.448 54 251 53.5523 251 53C251 52.4477 251.448 52 252 52C252.552 52 253 52.4477 253 53Z" fill="black"/>
<path d="M257 53C257 53.5523 256.552 54 256 54C255.448 54 255 53.5523 255 53C255 52.4477 255.448 52 256 52C256.552 52 257 52.4477 257 53Z" fill="black"/>
<path d="M261 53C261 53.5523 260.552 54 260 54C259.448 54 259 53.5523 259 53C259 52.4477 259.448 52 260 52C260.552 52 261 52.4477 261 53Z" fill="black"/>
<path d="M265 53C265 53.5523 264.552 54 264 54C263.448 54 263 53.5523 263 53C263 52.4477 263.448 52 264 52C264.552 52 265 52.4477 265 53Z" fill="black"/>
<path d="M268 53C268 53.5523 267.552 54 267 54C266.448 54 266 53.5523 266 53C266 52.4477 266.448 52 267 52C267.552 52 268 52.4477 268 53Z" fill="black"/>
<path d="M272 53C272 53.5523 271.552 54 271 54C270.448 54 270 53.5523 270 53C270 52.4477 270.448 52 271 52C271.552 52 272 52.4477 272 53Z" fill="black"/>
<path d="M276 53C276 53.5523 275.552 54 275 54C274.448 54 274 53.5523 274 53C274 52.4477 274.448 52 275 52C275.552 52 276 52.4477 276 53Z" fill="black"/>
<path d="M280 53C280 53.5523 279.552 54 279 54C278.448 54 278 53.5523 278 53C278 52.4477 278.448 52 279 52C279.552 52 280 52.4477 280 53Z" fill="black"/>
<path d="M283 53C283 53.5523 282.552 54 282 54C281.448 54 281 53.5523 281 53C281 52.4477 281.448 52 282 52C282.552 52 283 52.4477 283 53Z" fill="black"/>
<path d="M287 53C287 53.5523 286.552 54 286 54C285.448 54 285 53.5523 285 53C285 52.4477 285.448 52 286 52C286.552 52 287 52.4477 287 53Z" fill="black"/>
<path d="M225 53C225 53.5523 224.552 54 224 54C223.448 54 223 53.5523 223 53C223 52.4477 223.448 52 224 52C224.552 52 225 52.4477 225 53Z" fill="black"/>
<path d="M229 53C229 53.5523 228.552 54 228 54C227.448 54 227 53.5523 227 53C227 52.4477 227.448 52 228 52C228.552 52 229 52.4477 229 53Z" fill="black"/>
<path d="M232 53C232 53.5523 231.552 54 231 54C230.448 54 230 53.5523 230 53C230 52.4477 230.448 52 231 52C231.552 52 232 52.4477 232 53Z" fill="black"/>
<path d="M236 53C236 53.5523 235.552 54 235 54C234.448 54 234 53.5523 234 53C234 52.4477 234.448 52 235 52C235.552 52 236 52.4477 236 53Z" fill="black"/>
<path d="M240 53C240 53.5523 239.552 54 239 54C238.448 54 238 53.5523 238 53C238 52.4477 238.448 52 239 52C239.552 52 240 52.4477 240 53Z" fill="black"/>
<path d="M244 53C244 53.5523 243.552 54 243 54C242.448 54 242 53.5523 242 53C242 52.4477 242.448 52 243 52C243.552 52 244 52.4477 244 53Z" fill="black"/>
<path d="M247 53C247 53.5523 246.552 54 246 54C245.448 54 245 53.5523 245 53C245 52.4477 245.448 52 246 52C246.552 52 247 52.4477 247 53Z" fill="black"/>
<path d="M251 53C251 53.5523 250.552 54 250 54C249.448 54 249 53.5523 249 53C249 52.4477 249.448 52 250 52C250.552 52 251 52.4477 251 53Z" fill="black"/>
<path d="M255 53C255 53.5523 254.552 54 254 54C253.448 54 253 53.5523 253 53C253 52.4477 253.448 52 254 52C254.552 52 255 52.4477 255 53Z" fill="black"/>
<path d="M259 53C259 53.5523 258.552 54 258 54C257.448 54 257 53.5523 257 53C257 52.4477 257.448 52 258 52C258.552 52 259 52.4477 259 53Z" fill="black"/>
<path d="M262 53C262 53.5523 261.552 54 261 54C260.448 54 260 53.5523 260 53C260 52.4477 260.448 52 261 52C261.552 52 262 52.4477 262 53Z" fill="black"/>
<path d="M266 53C266 53.5523 265.552 54 265 54C264.448 54 264 53.5523 264 53C264 52.4477 264.448 52 265 52C265.552 52 266 52.4477 266 53Z" fill="black"/>
<path d="M270 53C270 53.5523 269.552 54 269 54C268.448 54 268 53.5523 268 53C268 52.4477 268.448 52 269 52C269.552 52 270 52.4477 270 53Z" fill="black"/>
<path d="M274 53C274 53.5523 273.552 54 273 54C272.448 54 272 53.5523 272 53C272 52.4477 272.448 52 273 52C273.552 52 274 52.4477 274 53Z" fill="black"/>
<path d="M277 53C277 53.5523 276.552 54 276 54C275.448 54 275 53.5523 275 53C275 52.4477 275.448 52 276 52C276.552 52 277 52.4477 277 53Z" fill="black"/>
<path d="M281 53C281 53.5523 280.552 54 280 54C279.448 54 279 53.5523 279 53C279 52.4477 279.448 52 280 52C280.552 52 281 52.4477 281 53Z" fill="black"/>
<path d="M234 53C234 53.5523 233.552 54 233 54C232.448 54 232 53.5523 232 53C232 52.4477 232.448 52 233 52C233.552 52 234 52.4477 234 53Z" fill="black"/>
<path d="M238 53C238 53.5523 237.552 54 237 54C236.448 54 236 53.5523 236 53C236 52.4477 236.448 52 237 52C237.552 52 238 52.4477 238 53Z" fill="black"/>
<path d="M241 53C241 53.5523 240.552 54 240 54C239.448 54 239 53.5523 239 53C239 52.4477 239.448 52 240 52C240.552 52 241 52.4477 241 53Z" fill="black"/>
<path d="M245 53C245 53.5523 244.552 54 244 54C243.448 54 243 53.5523 243 53C243 52.4477 243.448 52 244 52C244.552 52 245 52.4477 245 53Z" fill="black"/>
<path d="M249 53C249 53.5523 248.552 54 248 54C247.448 54 247 53.5523 247 53C247 52.4477 247.448 52 248 52C248.552 52 249 52.4477 249 53Z" fill="black"/>
<path d="M253 53C253 53.5523 252.552 54 252 54C251.448 54 251 53.5523 251 53C251 52.4477 251.448 52 252 52C252.552 52 253 52.4477 253 53Z" fill="black"/>
<path d="M256 53C256 53.5523 255.552 54 255 54C254.448 54 254 53.5523 254 53C254 52.4477 254.448 52 255 52C255.552 52 256 52.4477 256 53Z" fill="black"/>
<path d="M260 53C260 53.5523 259.552 54 259 54C258.448 54 258 53.5523 258 53C258 52.4477 258.448 52 259 52C259.552 52 260 52.4477 260 53Z" fill="black"/>
<path d="M264 53C264 53.5523 263.552 54 263 54C262.448 54 262 53.5523 262 53C262 52.4477 262.448 52 263 52C263.552 52 264 52.4477 264 53Z" fill="black"/>
<path d="M268 53C268 53.5523 267.552 54 267 54C266.448 54 266 53.5523 266 53C266 52.4477 266.448 52 267 52C267.552 52 268 52.4477 268 53Z" fill="black"/>
<path d="M271 53C271 53.5523 270.552 54 270 54C269.448 54 269 53.5523 269 53C269 52.4477 269.448 52 270 52C270.552 52 271 52.4477 271 53Z" fill="black"/>
<path d="M275 53C275 53.5523 274.552 54 274 54C273.448 54 273 53.5523 273 53C273 52.4477 273.448 52 274 52C274.552 52 275 52.4477 275 53Z" fill="black"/>
<path d="M279 53C279 53.5523 278.552 54 278 54C277.448 54 277 53.5523 277 53C277 52.4477 277.448 52 278 52C278.552 52 279 52.4477 279 53Z" fill="black"/>
<path d="M283 53C283 53.5523 282.552 54 282 54C281.448 54 281 53.5523 281 53C281 52.4477 281.448 52 282 52C282.552 52 283 52.4477 283 53Z" fill="black"/>
<path d="M286 53C286 53.5523 285.552 54 285 54C284.448 54 284 53.5523 284 53C284 52.4477 284.448 52 285 52C285.552 52 286 52.4477 286 53Z" fill="black"/>
<path d="M290 53C290 53.5523 289.552 54 289 54C288.448 54 288 53.5523 288 53C288 52.4477 288.448 52 289 52C289.552 52 290 52.4477 290 53Z" fill="black"/>
<path d="M227 53C227 53.5523 226.552 54 226 54C225.448 54 225 53.5523 225 53C225 52.4477 225.448 52 226 52C226.552 52 227 52.4477 227 53Z" fill="black"/>
<path d="M231 53C231 53.5523 230.552 54 230 54C229.448 54 229 53.5523 229 53C229 52.4477 229.448 52 230 52C230.552 52 231 52.4477 231 53Z" fill="black"/>
<path d="M234 53C234 53.5523 233.552 54 233 54C232.448 54 232 53.5523 232 53C232 52.4477 232.448 52 233 52C233.552 52 234 52.4477 234 53Z" fill="black"/>
<path d="M238 53C238 53.5523 237.552 54 237 54C236.448 54 236 53.5523 236 53C236 52.4477 236.448 52 237 52C237.552 52 238 52.4477 238 53Z" fill="black"/>
<path d="M242 53C242 53.5523 241.552 54 241 54C240.448 54 240 53.5523 240 53C240 52.4477 240.448 52 241 52C241.552 52 242 52.4477 242 53Z" fill="black"/>
<path d="M246 53C246 53.5523 245.552 54 245 54C244.448 54 244 53.5523 244 53C244 52.4477 244.448 52 245 52C245.552 52 246 52.4477 246 53Z" fill="black"/>
<path d="M249 53C249 53.5523 248.552 54 248 54C247.448 54 247 53.5523 247 53C247 52.4477 247.448 52 248 52C248.552 52 249 52.4477 249 53Z" fill="black"/>
<path d="M253 53C253 53.5523 252.552 54 252 54C251.448 54 251 53.5523 251 53C251 52.4477 251.448 52 252 52C252.552 52 253 52.4477 253 53Z" fill="black"/>
<path d="M257 53C257 53.5523 256.552 54 256 54C255.448 54 255 53.5523 255 53C255 52.4477 255.448 52 256 52C256.552 52 257 52.4477 257 53Z" fill="black"/>
<path d="M261 53C261 53.5523 260.552 54 260 54C259.448 54 259 53.5523 259 53C259 52.4477 259.448 52 260 52C260.552 52 261 52.4477 261 53Z" fill="black"/>
<path d="M264 53C264 53.5523 263.552 54 263 54C262.448 54 262 53.5523 262 53C262 52.4477 262.448 52 263 52C263.552 52 264 52.4477 264 53Z" fill="black"/>
<path d="M268 53C268 53.5523 267.552 54 267 54C266.448 54 266 53.5523 266 53C266 52.4477 266.448 52 267 52C267.552 52 268 52.4477 268 53Z" fill="black"/>
<path d="M272 53C272 53.5523 271.552 54 271 54C270.448 54 270 53.5523 270 53C270 52.4477 270.448 52 271 52C271.552 52 272 52.4477 272 53Z" fill="black"/>
<path d="M276 53C276 53.5523 275.552 54 275 54C274.448 54 274 53.5523 274 53C274 52.4477 274.448 52 275 52C275.552 52 276 52.4477 276 53Z" fill="black"/>
<path d="M279 53C279 53.5523 278.552 54 278 54C277.448 54 277 53.5523 277 53C277 52.4477 277.448 52 278 52C278.552 52 279 52.4477 279 53Z" fill="black"/>
<path d="M283 53C283 53.5523 282.552 54 282 54C281.448 54 281 53.5523 281 53C281 52.4477 281.448 52 282 52C282.552 52 283 52.4477 283 53Z" fill="black"/>
<path d="M236 53C236 53.5523 235.552 54 235 54C234.448 54 234 53.5523 234 53C234 52.4477 234.448 52 235 52C235.552 52 236 52.4477 236 53Z" fill="black"/>
<path d="M240 53C240 53.5523 239.552 54 239 54C238.448 54 238 53.5523 238 53C238 52.4477 238.448 52 239 52C239.552 52 240 52.4477 240 53Z" fill="black"/>
<path d="M243 53C243 53.5523 242.552 54 242 54C241.448 54 241 53.5523 241 53C241 52.4477 241.448 52 242 52C242.552 52 243 52.4477 243 53Z" fill="black"/>
<path d="M247 53C247 53.5523 246.552 54 246 54C245.448 54 245 53.5523 245 53C245 52.4477 245.448 52 246 52C246.552 52 247 52.4477 247 53Z" fill="black"/>
<path d="M251 53C251 53.5523 250.552 54 250 54C249.448 54 249 53.5523 249 53C249 52.4477 249.448 52 250 52C250.552 52 251 52.4477 251 53Z" fill="black"/>
<path d="M255 53C255 53.5523 254.552 54 254 54C253.448 54 253 53.5523 253 53C253 52.4477 253.448 52 254 52C254.552 52 255 52.4477 255 53Z" fill="black"/>
<path d="M258 53C258 53.5523 257.552 54 257 54C256.448 54 256 53.5523 256 53C256 52.4477 256.448 52 257 52C257.552 52 258 52.4477 258 53Z" fill="black"/>
<path d="M262 53C262 53.5523 261.552 54 261 54C260.448 54 260 53.5523 260 53C260 52.4477 260.448 52 261 52C261.552 52 262 52.4477 262 53Z" fill="black"/>
<path d="M266 53C266 53.5523 265.552 54 265 54C264.448 54 264 53.5523 264 53C264 52.4477 264.448 52 265 52C265.552 52 266 52.4477 266 53Z" fill="black"/>
<path d="M270 53C270 53.5523 269.552 54 269 54C268.448 54 268 53.5523 268 53C268 52.4477 268.448 52 269 52C269.552 52 270 52.4477 270 53Z" fill="black"/>
<path d="M273 53C273 53.5523 272.552 54 272 54C271.448 54 271 53.5523 271 53C271 52.4477 271.448 52 272 52C272.552 52 273 52.4477 273 53Z" fill="black"/>
<path d="M277 53C277 53.5523 276.552 54 276 54C275.448 54 275 53.5523 275 53C275 52.4477 275.448 52 276 52C276.552 52 277 52.4477 277 53Z" fill="black"/>
<path d="M281 53C281 53.5523 280.552 54 280 54C279.448 54 279 53.5523 279 53C279 52.4477 279.448 52 280 52C280.552 52 281 52.4477 281 53Z" fill="black"/>
<path d="M285 53C285 53.5523 284.552 54 284 54C283.448 54 283 53.5523 283 53C283 52.4477 283.448 52 284 52C284.552 52 285 52.4477 285 53Z" fill="black"/>
<path d="M288 53C288 53.5523 287.552 54 287 54C286.448 54 286 53.5523 286 53C286 52.4477 286.448 52 287 52C287.552 52 288 52.4477 288 53Z" fill="black"/>
<path d="M292 53C292 53.5523 291.552 54 291 54C290.448 54 290 53.5523 290 53C290 52.4477 290.448 52 291 52C291.552 52 292 52.4477 292 53Z" fill="black"/>
<path d="M205 54.5C205 84.5995 180.6 109 150.5 109C120.4 109 96 84.5995 96 54.5C96 24.4005 120.4 0 150.5 0C180.6 0 205 24.4005 205 54.5Z" fill="black"/>
<path d="M163.402 66.7679L163.562 66.9056C163.739 66.8596 163.925 66.8596 164.103 66.9056L174.299 69.8202C177.432 70.9447 180.107 72.4288 181.997 74.5172C183.024 75.6522 183.816 76.9802 184.329 78.4245C184.842 79.8688 185.064 81.4008 184.984 82.932V95.8296C184.982 96.1381 184.86 96.4335 184.643 96.6523C184.426 96.8712 184.133 96.996 183.826 97H117.166C116.857 96.998 116.562 96.874 116.344 96.655C116.126 96.4359 116.002 96.1394 116 95.8296V84.4161C115.993 81.5051 116.767 78.646 118.241 76.139C119.774 73.7152 121.981 71.7952 124.589 70.6158L124.779 70.5393L136.782 67.1581C136.955 67.1165 137.135 67.1165 137.308 67.1581H137.369C138.467 66.341 139.396 65.3173 140.105 64.1441C140.42 63.6504 140.707 63.1396 140.966 62.6141C139.763 61.3019 138.684 59.8806 137.742 58.3685L134.359 53.0136C133.283 51.578 132.619 49.8744 132.438 48.0871C132.394 47.4801 132.512 46.8722 132.78 46.3262C133.048 45.7803 133.456 45.316 133.962 44.9813C134.218 44.8064 134.494 44.665 134.785 44.5605C134.737 43.67 134.763 42.7771 134.862 41.8908C134.838 41.8109 134.823 41.7289 134.816 41.646L133.848 33.2312C127.325 30.6685 124.223 26.3463 123.583 21.9324C123.303 19.928 123.502 17.8856 124.162 15.9732C125.343 12.4765 127.794 9.55514 131.026 7.79142C134.257 6.02771 138.032 5.55118 141.598 6.45682C144.647 4.16188 147.848 2.84611 151.117 3.01441C154.005 3.15975 156.878 4.43727 159.599 7.16826C161.894 6.03074 164.469 5.58643 167.011 5.88925C169.553 6.19206 171.952 7.22899 173.918 8.87416C175.773 10.3953 177.228 12.3494 178.156 14.5656C179.107 16.7884 179.434 19.2303 179.101 21.6264C178.377 26.3769 174.917 30.9974 167.441 33.5219L166.397 41.776C166.386 41.8828 166.363 41.988 166.328 42.0896L166.679 44.7824C167.114 44.8926 167.51 45.1207 167.825 45.4418C168.139 45.7629 168.36 46.1646 168.462 46.603C168.736 47.674 168.462 49.1657 167.532 51.1929C167.518 51.2326 167.5 51.271 167.479 51.3077L163.623 57.6647C162.593 59.3997 161.393 61.027 160.041 62.5223C160.27 63.0094 160.525 63.4844 160.803 63.9452C161.473 65.0262 162.348 65.9645 163.379 66.7067L163.402 66.7679ZM137.681 42.847L137.857 46.7866C137.488 46.813 137.118 46.8001 136.752 46.7484C135.525 46.7943 134.465 47.1462 134.511 48.5231C134.684 49.8478 135.21 51.1008 136.035 52.1492L139.251 57.1292C140.446 59.0092 141.901 60.7091 143.572 62.1781C145.499 63.752 147.909 64.6063 150.393 64.5954C153.01 64.6454 155.558 63.7494 157.572 62.071C159.304 60.484 160.802 58.6578 162.022 56.6472L165.65 50.8334C166.32 49.3034 166.572 48.3319 166.412 47.7735C166.092 46.8096 163.806 47.2762 163.028 47.1768L163.79 43.0765C155.735 39.7488 147.024 39.7718 137.636 42.8546L137.681 42.847ZM164.217 37.9511L164.979 32.3973C165.007 32.1493 165.105 31.9146 165.262 31.7207C165.419 31.5269 165.627 31.3821 165.863 31.3034C172.775 29.1921 175.915 25.2601 176.532 21.2592C176.801 19.3328 176.538 17.3693 175.77 15.583C175.012 13.7599 173.819 12.1521 172.295 10.9014C170.595 9.48866 168.504 8.63362 166.305 8.45167C164.105 8.26973 161.903 8.76965 159.995 9.88394C159.737 10.0411 159.432 10.1033 159.134 10.0601C158.835 10.0168 158.56 9.87074 158.357 9.6468C155.933 6.97701 153.449 5.74539 150.995 5.62299C148.221 5.47765 145.401 6.72457 142.673 8.89711C142.512 9.02171 142.324 9.10667 142.124 9.14519C141.924 9.18371 141.718 9.17473 141.522 9.11896C139.353 8.43972 137.036 8.39257 134.841 8.983C132.646 9.57344 130.663 10.7772 129.123 12.4543C127.994 13.674 127.132 15.1177 126.593 16.6923C126.063 18.2186 125.904 19.8499 126.128 21.4505C126.669 25.1836 129.458 28.8249 135.456 30.9592C135.689 31.0434 135.894 31.1923 136.047 31.3886C136.199 31.585 136.293 31.8207 136.317 32.0684L137.018 37.9741C145.94 35.6791 155.295 35.6791 164.217 37.9741V37.9511ZM140.044 32.1296C139.968 31.7928 140.029 31.4396 140.212 31.1476C140.396 30.8557 140.688 30.6489 141.023 30.5729C141.359 30.4968 141.71 30.5576 142.001 30.7419C142.292 30.9263 142.498 31.2191 142.574 31.5559L143.267 33.5295C143.32 33.8582 143.246 34.1946 143.06 34.4703C142.874 34.746 142.591 34.9402 142.267 35.0134C141.944 35.0865 141.604 35.0331 141.319 34.864C141.033 34.6949 140.822 34.4228 140.73 34.1032L140.044 32.1296ZM136.942 12.3013C137.273 12.2049 137.628 12.2443 137.929 12.4107C138.079 12.4931 138.21 12.6042 138.317 12.7377C138.423 12.8712 138.503 13.0244 138.55 13.1887C138.598 13.3529 138.613 13.5249 138.594 13.695C138.575 13.865 138.523 14.0296 138.441 14.1795C138.359 14.3294 138.248 14.4616 138.115 14.5685C137.982 14.6754 137.83 14.7551 137.666 14.8028C136.045 15.2081 134.564 16.0491 133.383 17.2354C132.36 18.3996 131.758 19.8769 131.676 21.4275C131.647 21.7734 131.482 22.0935 131.217 22.3173C130.953 22.5411 130.611 22.6503 130.266 22.6209C129.922 22.5915 129.603 22.4258 129.38 22.1604C129.157 21.895 129.048 21.5516 129.077 21.2057C129.208 19.0793 130.051 17.0598 131.47 15.476C132.969 13.9329 134.862 12.8344 136.942 12.3013ZM142.871 64.3812C142.673 64.7484 142.467 65.1462 142.254 65.4445C141.591 66.5002 140.797 67.4668 139.891 68.3209C143.44 69.8499 147.263 70.631 151.125 70.6158C153.452 70.6026 155.764 70.239 157.983 69.5372C158.98 69.1098 159.939 68.5979 160.849 68.0072C160.011 67.2344 159.28 66.3518 158.677 65.3833C158.486 65.085 158.303 64.779 158.128 64.4501C156.124 66.1101 153.67 66.8138 150.416 66.8138C147.162 66.8138 144.853 66.0489 142.864 64.3812H142.871ZM149.212 60.3727C149.128 60.3822 149.044 60.374 148.964 60.3485C148.885 60.323 148.811 60.2809 148.749 60.225C148.686 60.169 148.636 60.1004 148.602 60.0237C148.568 59.947 148.55 59.8639 148.55 59.7798C148.55 59.6958 148.568 59.6127 148.602 59.536C148.636 59.4593 148.686 59.3907 148.749 59.3347C148.811 59.2787 148.885 59.2366 148.964 59.2112C149.044 59.1857 149.128 59.1775 149.212 59.187L151.818 59.0722C151.896 59.0702 151.974 59.0836 152.047 59.1117C152.12 59.1399 152.186 59.1821 152.243 59.2361C152.299 59.2901 152.345 59.3548 152.377 59.4264C152.408 59.498 152.426 59.5753 152.428 59.6536C152.431 59.7316 152.418 59.8094 152.391 59.8826C152.364 59.9557 152.323 60.0227 152.269 60.0796C152.216 60.1366 152.152 60.1823 152.081 60.2143C152.01 60.2462 151.934 60.2636 151.856 60.2656L149.212 60.3727ZM148.655 52.6158C148.487 52.5516 148.35 52.4263 148.269 52.2649C148.189 52.1034 148.172 51.9175 148.222 51.7442C148.272 51.5708 148.385 51.4226 148.539 51.329C148.692 51.2354 148.875 51.2032 149.052 51.2388C150.477 51.6596 150.576 51.629 151.78 51.1853L151.902 51.147C151.99 51.1146 152.083 51.0998 152.176 51.1037C152.27 51.1076 152.362 51.13 152.446 51.1697C152.531 51.2093 152.607 51.2654 152.67 51.3348C152.733 51.4041 152.782 51.4852 152.814 51.5736C152.845 51.6619 152.859 51.7557 152.855 51.8494C152.85 51.9432 152.827 52.0351 152.787 52.1199C152.747 52.2047 152.69 52.2807 152.621 52.3435C152.551 52.4063 152.47 52.4546 152.382 52.4857L152.26 52.5316C150.629 53.1207 150.522 53.1589 148.655 52.6158ZM156.543 44.5223C156.844 44.5223 157.139 44.612 157.39 44.7801C157.64 44.9482 157.836 45.1872 157.951 45.4668C158.066 45.7463 158.097 46.054 158.038 46.3507C157.979 46.6475 157.834 46.9201 157.621 47.1341C157.408 47.3481 157.136 47.4938 156.84 47.5528C156.545 47.6119 156.238 47.5816 155.96 47.4658C155.681 47.35 155.443 47.1539 155.276 46.9023C155.108 46.6507 155.019 46.3549 155.019 46.0523C155.019 45.6465 155.179 45.2573 155.465 44.9704C155.751 44.6835 156.139 44.5223 156.543 44.5223ZM145.203 44.5223C145.505 44.5223 145.799 44.612 146.05 44.7801C146.301 44.9482 146.496 45.1872 146.611 45.4668C146.727 45.7463 146.757 46.054 146.698 46.3507C146.639 46.6475 146.494 46.9201 146.281 47.1341C146.068 47.3481 145.796 47.4938 145.5 47.5528C145.205 47.6119 144.898 47.5816 144.62 47.4658C144.341 47.35 144.103 47.1539 143.936 46.9023C143.768 46.6507 143.679 46.3549 143.679 46.0523C143.679 45.6465 143.84 45.2573 144.125 44.9704C144.411 44.6835 144.799 44.5223 145.203 44.5223ZM155.476 57.3128C154.929 57.498 154.372 57.6513 153.807 57.7718C153.283 57.9252 152.744 58.0177 152.199 58.0472C151.71 58.0784 151.223 57.9583 150.804 57.7029C150.697 57.6294 150.595 57.5475 150.5 57.4581C150.402 57.5475 150.297 57.6294 150.187 57.7029C149.768 57.9583 149.282 58.0784 148.793 58.0472C148.248 58.0177 147.708 57.9252 147.185 57.7718C146.622 57.6513 146.068 57.498 145.523 57.3128C144.989 57.1296 144.465 56.9177 143.953 56.6778C143.895 56.6552 143.843 56.6203 143.8 56.5756C143.756 56.5308 143.723 56.4773 143.702 56.4186C143.681 56.3598 143.673 56.2973 143.678 56.2351C143.683 56.1729 143.702 56.1126 143.732 56.0582C143.768 55.9907 143.819 55.9325 143.881 55.8886C143.943 55.8447 144.015 55.8163 144.09 55.8058L144.784 55.7063C145.394 55.646 145.993 55.5071 146.567 55.2932C146.735 55.2244 146.91 55.1479 147.078 55.0637C148.069 54.6047 149.143 54.1075 150.218 54.9643C150.311 55.0354 150.398 55.1147 150.477 55.2014C150.555 55.1166 150.639 55.0374 150.728 54.9643C151.803 54.1075 152.885 54.6047 153.868 55.0637C154.043 55.1479 154.211 55.2244 154.386 55.2932C154.96 55.508 155.56 55.6469 156.17 55.7063L156.863 55.8058C156.939 55.8169 157.012 55.8455 157.075 55.8893C157.139 55.9331 157.191 55.9908 157.229 56.0582C157.257 56.1131 157.273 56.1732 157.277 56.2347C157.281 56.2963 157.273 56.358 157.252 56.416C157.231 56.4741 157.199 56.5273 157.157 56.5723C157.115 56.6173 157.064 56.6533 157.008 56.6778C156.508 56.9152 155.997 57.1271 155.476 57.3128ZM149.959 72.9719C146.317 73.0464 142.709 72.2602 139.427 70.677C138.596 70.3404 137.773 69.9579 136.965 69.5448L125.496 72.7654C123.336 73.7569 121.506 75.35 120.222 77.3553C118.965 79.5095 118.311 81.9653 118.332 84.462V94.6515H139.579V86.5274C139.473 84.4707 139.862 82.4186 140.714 80.5453C141.662 78.78 142.987 77.2467 144.593 76.0548C144.665 75.991 144.744 75.9369 144.83 75.8942L150.728 72.9719H149.959ZM150.149 88.4552C150.527 88.4552 150.897 88.5678 151.212 88.7788C151.526 88.9897 151.771 89.2896 151.916 89.6405C152.061 89.9913 152.099 90.3774 152.025 90.7499C151.951 91.1223 151.769 91.4645 151.502 91.733C151.234 92.0015 150.893 92.1844 150.522 92.2585C150.151 92.3326 149.767 92.2945 149.417 92.1492C149.068 92.0039 148.769 91.7578 148.559 91.442C148.348 91.1263 148.236 90.755 148.236 90.3753C148.235 90.1228 148.284 89.8727 148.38 89.6393C148.476 89.4059 148.616 89.1938 148.794 89.0153C148.972 88.8368 149.183 88.6954 149.416 88.5993C149.648 88.5031 149.898 88.4542 150.149 88.4552ZM150.149 80.4611C150.527 80.4611 150.897 80.5737 151.212 80.7847C151.526 80.9957 151.771 81.2956 151.916 81.6464C152.061 81.9973 152.099 82.3833 152.025 82.7558C151.951 83.1283 151.769 83.4704 151.502 83.7389C151.234 84.0075 150.893 84.1903 150.522 84.2644C150.151 84.3385 149.767 84.3005 149.417 84.1552C149.068 84.0098 148.769 83.7637 148.559 83.448C148.348 83.1322 148.236 82.761 148.236 82.3812C148.236 81.872 148.438 81.3836 148.796 81.0235C149.155 80.6634 149.642 80.4611 150.149 80.4611ZM157.77 72.0463C157.706 72.1026 157.634 72.149 157.557 72.184L145.98 77.9673C144.679 78.9399 143.6 80.1817 142.818 81.6086C142.13 83.1469 141.819 84.8284 141.911 86.5121V94.6592H182.66V82.909C182.731 81.6699 182.557 80.4288 182.147 79.2576C181.738 78.0864 181.101 77.0082 180.274 76.0854C178.392 74.2073 176.083 72.8182 173.545 72.0387L164.011 69.3153C162.098 70.5429 160.008 71.4691 157.816 72.0616L157.77 72.0463Z" fill="#FFFDFD"/>
</svg>
